<mxfile host="app.diagrams.net" agent="Mozilla/5.0 (Windows NT 10.0; Win64; x64) AppleWebKit/537.36 (KHTML, like Gecko) Chrome/131.0.0.0 Safari/537.36" version="26.0.7">
  <diagram name="Page-1" id="PEG4fmZPOcqcN3tmb9fP">
    <mxGraphModel dx="5446" dy="881" grid="0" gridSize="10" guides="1" tooltips="1" connect="1" arrows="1" fold="1" page="1" pageScale="1" pageWidth="3300" pageHeight="4681" background="#99CCFF" math="0" shadow="0">
      <root>
        <mxCell id="0" />
        <mxCell id="1" parent="0" />
        <mxCell id="-QC0LfeOqHy5VNt_hiCN-1" value="&lt;font style=&quot;font-size: 24px;&quot;&gt;OffresEmploi&lt;/font&gt;" style="shape=table;startSize=37;container=1;collapsible=1;childLayout=tableLayout;fixedRows=1;rowLines=0;fontStyle=1;align=center;resizeLast=1;html=1;fillColor=#ffe6cc;strokeColor=#d79b00;rounded=0;swimlaneLine=1;shadow=0;fontFamily=Courier New;fontSize=16;textShadow=0;labelBorderColor=none;labelBackgroundColor=none;perimeterSpacing=0;swimlaneFillColor=none;" parent="1" vertex="1">
          <mxGeometry x="-1822" y="1129" width="360" height="394.5297931489489" as="geometry" />
        </mxCell>
        <mxCell id="-QC0LfeOqHy5VNt_hiCN-2" value="" style="shape=tableRow;horizontal=0;startSize=0;swimlaneHead=0;swimlaneBody=0;fillColor=none;collapsible=0;dropTarget=0;points=[[0,0.5],[1,0.5]];portConstraint=eastwest;top=0;left=0;right=0;bottom=1;rounded=0;fontFamily=Courier New;fontSize=16;perimeterSpacing=0;shadow=0;swimlaneFillColor=none;" parent="-QC0LfeOqHy5VNt_hiCN-1" vertex="1">
          <mxGeometry y="37" width="360" height="30" as="geometry" />
        </mxCell>
        <mxCell id="-QC0LfeOqHy5VNt_hiCN-3" value="PK" style="shape=partialRectangle;connectable=0;fillColor=none;top=0;left=0;bottom=0;right=0;fontStyle=1;overflow=hidden;whiteSpace=wrap;html=1;rounded=0;fontFamily=Courier New;fontSize=16;perimeterSpacing=0;shadow=0;swimlaneFillColor=none;" parent="-QC0LfeOqHy5VNt_hiCN-2" vertex="1">
          <mxGeometry width="30" height="30" as="geometry">
            <mxRectangle width="30" height="30" as="alternateBounds" />
          </mxGeometry>
        </mxCell>
        <mxCell id="-QC0LfeOqHy5VNt_hiCN-4" value="&lt;u&gt;id_&lt;/u&gt;&lt;u style=&quot;background-color: transparent; color: light-dark(rgb(0, 0, 0), rgb(255, 255, 255));&quot;&gt;offre&lt;/u&gt;&lt;span style=&quot;background-color: transparent; color: light-dark(rgb(0, 0, 0), rgb(255, 255, 255));&quot;&gt;&amp;nbsp; &amp;nbsp; &amp;nbsp; &amp;nbsp; &amp;nbsp; &amp;nbsp; &amp;nbsp; &amp;nbsp; varchar&lt;/span&gt;" style="shape=partialRectangle;connectable=0;fillColor=none;top=0;left=0;bottom=0;right=0;align=left;spacingLeft=6;fontStyle=1;overflow=hidden;whiteSpace=wrap;html=1;rounded=0;fontFamily=Courier New;fontSize=16;perimeterSpacing=0;shadow=0;swimlaneFillColor=none;" parent="-QC0LfeOqHy5VNt_hiCN-2" vertex="1">
          <mxGeometry x="30" width="330" height="30" as="geometry">
            <mxRectangle width="330" height="30" as="alternateBounds" />
          </mxGeometry>
        </mxCell>
        <mxCell id="-QC0LfeOqHy5VNt_hiCN-5" value="" style="shape=tableRow;horizontal=0;startSize=0;swimlaneHead=0;swimlaneBody=0;fillColor=none;collapsible=0;dropTarget=0;points=[[0,0.5],[1,0.5]];portConstraint=eastwest;top=0;left=0;right=0;bottom=0;rounded=0;fontFamily=Courier New;fontSize=16;perimeterSpacing=0;shadow=0;swimlaneFillColor=none;" parent="-QC0LfeOqHy5VNt_hiCN-1" vertex="1">
          <mxGeometry y="67" width="360" height="30" as="geometry" />
        </mxCell>
        <mxCell id="-QC0LfeOqHy5VNt_hiCN-6" value="" style="shape=partialRectangle;connectable=0;fillColor=none;top=0;left=0;bottom=0;right=0;editable=1;overflow=hidden;whiteSpace=wrap;html=1;rounded=0;fontFamily=Courier New;fontSize=16;perimeterSpacing=0;shadow=0;swimlaneFillColor=none;" parent="-QC0LfeOqHy5VNt_hiCN-5" vertex="1">
          <mxGeometry width="30" height="30" as="geometry">
            <mxRectangle width="30" height="30" as="alternateBounds" />
          </mxGeometry>
        </mxCell>
        <mxCell id="-QC0LfeOqHy5VNt_hiCN-7" value="intitule_offre&amp;nbsp; &lt;span style=&quot;font-weight: 700;&quot;&gt;&amp;nbsp; &amp;nbsp; &amp;nbsp; &amp;nbsp; varchar&lt;/span&gt;" style="shape=partialRectangle;connectable=0;fillColor=none;top=0;left=0;bottom=0;right=0;align=left;spacingLeft=6;overflow=hidden;whiteSpace=wrap;html=1;rounded=0;fontFamily=Courier New;fontSize=16;perimeterSpacing=0;shadow=0;swimlaneFillColor=none;" parent="-QC0LfeOqHy5VNt_hiCN-5" vertex="1">
          <mxGeometry x="30" width="330" height="30" as="geometry">
            <mxRectangle width="330" height="30" as="alternateBounds" />
          </mxGeometry>
        </mxCell>
        <mxCell id="-QC0LfeOqHy5VNt_hiCN-8" value="" style="shape=tableRow;horizontal=0;startSize=0;swimlaneHead=0;swimlaneBody=0;fillColor=none;collapsible=0;dropTarget=0;points=[[0,0.5],[1,0.5]];portConstraint=eastwest;top=0;left=0;right=0;bottom=0;rounded=0;fontFamily=Courier New;fontSize=16;perimeterSpacing=0;shadow=0;swimlaneFillColor=none;" parent="-QC0LfeOqHy5VNt_hiCN-1" vertex="1">
          <mxGeometry y="97" width="360" height="30" as="geometry" />
        </mxCell>
        <mxCell id="-QC0LfeOqHy5VNt_hiCN-9" value="" style="shape=partialRectangle;connectable=0;fillColor=none;top=0;left=0;bottom=0;right=0;editable=1;overflow=hidden;whiteSpace=wrap;html=1;rounded=0;fontFamily=Courier New;fontSize=16;perimeterSpacing=0;shadow=0;swimlaneFillColor=none;" parent="-QC0LfeOqHy5VNt_hiCN-8" vertex="1">
          <mxGeometry width="30" height="30" as="geometry">
            <mxRectangle width="30" height="30" as="alternateBounds" />
          </mxGeometry>
        </mxCell>
        <mxCell id="-QC0LfeOqHy5VNt_hiCN-10" value="description_offre&amp;nbsp; &amp;nbsp; &amp;nbsp; &amp;nbsp;&lt;span style=&quot;font-weight: 700;&quot;&gt;varchar&lt;/span&gt;" style="shape=partialRectangle;connectable=0;fillColor=none;top=0;left=0;bottom=0;right=0;align=left;spacingLeft=6;overflow=hidden;whiteSpace=wrap;html=1;rounded=0;fontFamily=Courier New;fontSize=16;perimeterSpacing=0;shadow=0;swimlaneFillColor=none;" parent="-QC0LfeOqHy5VNt_hiCN-8" vertex="1">
          <mxGeometry x="30" width="330" height="30" as="geometry">
            <mxRectangle width="330" height="30" as="alternateBounds" />
          </mxGeometry>
        </mxCell>
        <mxCell id="C7LOxqXwbHzqQDy3l2-N-196" value="" style="shape=tableRow;horizontal=0;startSize=0;swimlaneHead=0;swimlaneBody=0;fillColor=none;collapsible=0;dropTarget=0;points=[[0,0.5],[1,0.5]];portConstraint=eastwest;top=0;left=0;right=0;bottom=0;rounded=0;fontFamily=Courier New;fontSize=16;perimeterSpacing=0;shadow=0;swimlaneFillColor=none;" parent="-QC0LfeOqHy5VNt_hiCN-1" vertex="1">
          <mxGeometry y="127" width="360" height="31" as="geometry" />
        </mxCell>
        <mxCell id="C7LOxqXwbHzqQDy3l2-N-197" value="" style="shape=partialRectangle;connectable=0;fillColor=none;top=0;left=0;bottom=0;right=0;editable=1;overflow=hidden;whiteSpace=wrap;html=1;rounded=0;fontFamily=Courier New;fontSize=16;perimeterSpacing=0;shadow=0;swimlaneFillColor=none;" parent="C7LOxqXwbHzqQDy3l2-N-196" vertex="1">
          <mxGeometry width="30" height="31" as="geometry">
            <mxRectangle width="30" height="31" as="alternateBounds" />
          </mxGeometry>
        </mxCell>
        <mxCell id="C7LOxqXwbHzqQDy3l2-N-198" value="complement_exercice&amp;nbsp; &amp;nbsp; &amp;nbsp;&lt;b&gt;varchar&lt;/b&gt;" style="shape=partialRectangle;connectable=0;fillColor=none;top=0;left=0;bottom=0;right=0;align=left;spacingLeft=6;overflow=hidden;whiteSpace=wrap;html=1;rounded=0;fontFamily=Courier New;fontSize=16;perimeterSpacing=0;shadow=0;swimlaneFillColor=none;" parent="C7LOxqXwbHzqQDy3l2-N-196" vertex="1">
          <mxGeometry x="30" width="330" height="31" as="geometry">
            <mxRectangle width="330" height="31" as="alternateBounds" />
          </mxGeometry>
        </mxCell>
        <mxCell id="C7LOxqXwbHzqQDy3l2-N-214" value="" style="shape=tableRow;horizontal=0;startSize=0;swimlaneHead=0;swimlaneBody=0;fillColor=none;collapsible=0;dropTarget=0;points=[[0,0.5],[1,0.5]];portConstraint=eastwest;top=0;left=0;right=0;bottom=0;rounded=0;fontFamily=Courier New;fontSize=16;perimeterSpacing=0;shadow=0;swimlaneFillColor=none;" parent="-QC0LfeOqHy5VNt_hiCN-1" vertex="1">
          <mxGeometry y="158" width="360" height="26" as="geometry" />
        </mxCell>
        <mxCell id="C7LOxqXwbHzqQDy3l2-N-215" value="" style="shape=partialRectangle;connectable=0;fillColor=none;top=0;left=0;bottom=0;right=0;editable=1;overflow=hidden;whiteSpace=wrap;html=1;rounded=0;fontFamily=Courier New;fontSize=16;perimeterSpacing=0;shadow=0;swimlaneFillColor=none;" parent="C7LOxqXwbHzqQDy3l2-N-214" vertex="1">
          <mxGeometry width="30" height="26" as="geometry">
            <mxRectangle width="30" height="26" as="alternateBounds" />
          </mxGeometry>
        </mxCell>
        <mxCell id="C7LOxqXwbHzqQDy3l2-N-216" value="date_creation&amp;nbsp; &amp;nbsp; &amp;nbsp; &amp;nbsp; &amp;nbsp; &amp;nbsp;&lt;span style=&quot;font-weight: 700;&quot;&gt;date&lt;/span&gt;" style="shape=partialRectangle;connectable=0;fillColor=none;top=0;left=0;bottom=0;right=0;align=left;spacingLeft=6;overflow=hidden;whiteSpace=wrap;html=1;rounded=0;fontFamily=Courier New;fontSize=16;perimeterSpacing=0;shadow=0;swimlaneFillColor=none;" parent="C7LOxqXwbHzqQDy3l2-N-214" vertex="1">
          <mxGeometry x="30" width="330" height="26" as="geometry">
            <mxRectangle width="330" height="26" as="alternateBounds" />
          </mxGeometry>
        </mxCell>
        <mxCell id="C7LOxqXwbHzqQDy3l2-N-217" value="" style="shape=tableRow;horizontal=0;startSize=0;swimlaneHead=0;swimlaneBody=0;fillColor=none;collapsible=0;dropTarget=0;points=[[0,0.5],[1,0.5]];portConstraint=eastwest;top=0;left=0;right=0;bottom=0;rounded=0;fontFamily=Courier New;fontSize=16;perimeterSpacing=0;shadow=0;swimlaneFillColor=none;" parent="-QC0LfeOqHy5VNt_hiCN-1" vertex="1">
          <mxGeometry y="184" width="360" height="30" as="geometry" />
        </mxCell>
        <mxCell id="C7LOxqXwbHzqQDy3l2-N-218" value="" style="shape=partialRectangle;connectable=0;fillColor=none;top=0;left=0;bottom=0;right=0;editable=1;overflow=hidden;whiteSpace=wrap;html=1;rounded=0;fontFamily=Courier New;fontSize=16;perimeterSpacing=0;shadow=0;swimlaneFillColor=none;" parent="C7LOxqXwbHzqQDy3l2-N-217" vertex="1">
          <mxGeometry width="30" height="30" as="geometry">
            <mxRectangle width="30" height="30" as="alternateBounds" />
          </mxGeometry>
        </mxCell>
        <mxCell id="C7LOxqXwbHzqQDy3l2-N-219" value="date_actualisation&amp;nbsp; &amp;nbsp; &amp;nbsp; &lt;span style=&quot;font-weight: 700;&quot;&gt;date&lt;/span&gt;" style="shape=partialRectangle;connectable=0;fillColor=none;top=0;left=0;bottom=0;right=0;align=left;spacingLeft=6;overflow=hidden;whiteSpace=wrap;html=1;rounded=0;fontFamily=Courier New;fontSize=16;perimeterSpacing=0;shadow=0;swimlaneFillColor=none;" parent="C7LOxqXwbHzqQDy3l2-N-217" vertex="1">
          <mxGeometry x="30" width="330" height="30" as="geometry">
            <mxRectangle width="330" height="30" as="alternateBounds" />
          </mxGeometry>
        </mxCell>
        <mxCell id="-QC0LfeOqHy5VNt_hiCN-11" value="" style="shape=tableRow;horizontal=0;startSize=0;swimlaneHead=0;swimlaneBody=0;fillColor=none;collapsible=0;dropTarget=0;points=[[0,0.5],[1,0.5]];portConstraint=eastwest;top=0;left=0;right=0;bottom=0;rounded=0;fontFamily=Courier New;fontSize=16;perimeterSpacing=0;shadow=0;swimlaneFillColor=none;" parent="-QC0LfeOqHy5VNt_hiCN-1" vertex="1">
          <mxGeometry y="214" width="360" height="30" as="geometry" />
        </mxCell>
        <mxCell id="-QC0LfeOqHy5VNt_hiCN-12" value="" style="shape=partialRectangle;connectable=0;fillColor=none;top=0;left=0;bottom=0;right=0;editable=1;overflow=hidden;whiteSpace=wrap;html=1;rounded=0;fontFamily=Courier New;fontSize=16;perimeterSpacing=0;shadow=0;swimlaneFillColor=none;" parent="-QC0LfeOqHy5VNt_hiCN-11" vertex="1">
          <mxGeometry width="30" height="30" as="geometry">
            <mxRectangle width="30" height="30" as="alternateBounds" />
          </mxGeometry>
        </mxCell>
        <mxCell id="-QC0LfeOqHy5VNt_hiCN-13" value="nombre_postes&amp;nbsp; &amp;nbsp; &amp;nbsp; &amp;nbsp; &amp;nbsp; &amp;nbsp;&lt;span style=&quot;font-weight: 700;&quot;&gt;integer&lt;/span&gt;" style="shape=partialRectangle;connectable=0;fillColor=none;top=0;left=0;bottom=0;right=0;align=left;spacingLeft=6;overflow=hidden;whiteSpace=wrap;html=1;rounded=0;fontFamily=Courier New;fontSize=16;perimeterSpacing=0;shadow=0;swimlaneFillColor=none;" parent="-QC0LfeOqHy5VNt_hiCN-11" vertex="1">
          <mxGeometry x="30" width="330" height="30" as="geometry">
            <mxRectangle width="330" height="30" as="alternateBounds" />
          </mxGeometry>
        </mxCell>
        <mxCell id="-QC0LfeOqHy5VNt_hiCN-23" value="" style="shape=tableRow;horizontal=0;startSize=0;swimlaneHead=0;swimlaneBody=0;fillColor=none;collapsible=0;dropTarget=0;points=[[0,0.5],[1,0.5]];portConstraint=eastwest;top=0;left=0;right=0;bottom=0;rounded=0;fontFamily=Courier New;fontSize=16;perimeterSpacing=0;shadow=0;swimlaneFillColor=none;" parent="-QC0LfeOqHy5VNt_hiCN-1" vertex="1">
          <mxGeometry y="244" width="360" height="30" as="geometry" />
        </mxCell>
        <mxCell id="-QC0LfeOqHy5VNt_hiCN-24" value="" style="shape=partialRectangle;connectable=0;fillColor=none;top=0;left=0;bottom=0;right=0;editable=1;overflow=hidden;whiteSpace=wrap;html=1;rounded=0;fontFamily=Courier New;fontSize=16;perimeterSpacing=0;shadow=0;swimlaneFillColor=none;" parent="-QC0LfeOqHy5VNt_hiCN-23" vertex="1">
          <mxGeometry width="30" height="30" as="geometry">
            <mxRectangle width="30" height="30" as="alternateBounds" />
          </mxGeometry>
        </mxCell>
        <mxCell id="-QC0LfeOqHy5VNt_hiCN-25" value="qualification_code&amp;nbsp; &amp;nbsp; &amp;nbsp;&amp;nbsp;&lt;span style=&quot;font-weight: 700;&quot;&gt;integer&lt;/span&gt;" style="shape=partialRectangle;connectable=0;fillColor=none;top=0;left=0;bottom=0;right=0;align=left;spacingLeft=6;overflow=hidden;whiteSpace=wrap;html=1;rounded=0;fontFamily=Courier New;fontSize=16;perimeterSpacing=0;shadow=0;swimlaneFillColor=none;" parent="-QC0LfeOqHy5VNt_hiCN-23" vertex="1">
          <mxGeometry x="30" width="330" height="30" as="geometry">
            <mxRectangle width="330" height="30" as="alternateBounds" />
          </mxGeometry>
        </mxCell>
        <mxCell id="C7LOxqXwbHzqQDy3l2-N-245" value="" style="shape=tableRow;horizontal=0;startSize=0;swimlaneHead=0;swimlaneBody=0;fillColor=none;collapsible=0;dropTarget=0;points=[[0,0.5],[1,0.5]];portConstraint=eastwest;top=0;left=0;right=0;bottom=0;rounded=0;fontFamily=Courier New;fontSize=16;perimeterSpacing=0;shadow=0;swimlaneFillColor=none;" parent="-QC0LfeOqHy5VNt_hiCN-1" vertex="1">
          <mxGeometry y="274" width="360" height="30" as="geometry" />
        </mxCell>
        <mxCell id="C7LOxqXwbHzqQDy3l2-N-246" value="" style="shape=partialRectangle;connectable=0;fillColor=none;top=0;left=0;bottom=0;right=0;editable=1;overflow=hidden;whiteSpace=wrap;html=1;rounded=0;fontFamily=Courier New;fontSize=16;perimeterSpacing=0;shadow=0;swimlaneFillColor=none;" parent="C7LOxqXwbHzqQDy3l2-N-245" vertex="1">
          <mxGeometry width="30" height="30" as="geometry">
            <mxRectangle width="30" height="30" as="alternateBounds" />
          </mxGeometry>
        </mxCell>
        <mxCell id="C7LOxqXwbHzqQDy3l2-N-247" value="qualification_libelle&amp;nbsp; &amp;nbsp;&lt;span style=&quot;font-weight: 700;&quot;&gt;varchar&lt;/span&gt;" style="shape=partialRectangle;connectable=0;fillColor=none;top=0;left=0;bottom=0;right=0;align=left;spacingLeft=6;overflow=hidden;whiteSpace=wrap;html=1;rounded=0;fontFamily=Courier New;fontSize=16;perimeterSpacing=0;shadow=0;swimlaneFillColor=none;" parent="C7LOxqXwbHzqQDy3l2-N-245" vertex="1">
          <mxGeometry x="30" width="330" height="30" as="geometry">
            <mxRectangle width="330" height="30" as="alternateBounds" />
          </mxGeometry>
        </mxCell>
        <mxCell id="-QC0LfeOqHy5VNt_hiCN-29" value="" style="shape=tableRow;horizontal=0;startSize=0;swimlaneHead=0;swimlaneBody=0;fillColor=none;collapsible=0;dropTarget=0;points=[[0,0.5],[1,0.5]];portConstraint=eastwest;top=0;left=0;right=0;bottom=0;rounded=0;fontFamily=Courier New;fontSize=16;perimeterSpacing=0;shadow=0;swimlaneFillColor=none;" parent="-QC0LfeOqHy5VNt_hiCN-1" vertex="1">
          <mxGeometry y="304" width="360" height="30" as="geometry" />
        </mxCell>
        <mxCell id="-QC0LfeOqHy5VNt_hiCN-30" value="" style="shape=partialRectangle;connectable=0;fillColor=none;top=0;left=0;bottom=0;right=0;editable=1;overflow=hidden;whiteSpace=wrap;html=1;rounded=0;fontFamily=Courier New;fontSize=16;perimeterSpacing=0;shadow=0;swimlaneFillColor=none;" parent="-QC0LfeOqHy5VNt_hiCN-29" vertex="1">
          <mxGeometry width="30" height="30" as="geometry">
            <mxRectangle width="30" height="30" as="alternateBounds" />
          </mxGeometry>
        </mxCell>
        <mxCell id="-QC0LfeOqHy5VNt_hiCN-31" value="nom_partenaire&amp;nbsp; &amp;nbsp; &amp;nbsp; &amp;nbsp; &amp;nbsp; &lt;b&gt;varchar&lt;/b&gt;" style="shape=partialRectangle;connectable=0;fillColor=none;top=0;left=0;bottom=0;right=0;align=left;spacingLeft=6;overflow=hidden;whiteSpace=wrap;html=1;rounded=0;fontFamily=Courier New;fontSize=16;perimeterSpacing=0;shadow=0;swimlaneFillColor=none;" parent="-QC0LfeOqHy5VNt_hiCN-29" vertex="1">
          <mxGeometry x="30" width="330" height="30" as="geometry">
            <mxRectangle width="330" height="30" as="alternateBounds" />
          </mxGeometry>
        </mxCell>
        <mxCell id="-QC0LfeOqHy5VNt_hiCN-14" value="" style="shape=tableRow;horizontal=0;startSize=0;swimlaneHead=0;swimlaneBody=0;fillColor=none;collapsible=0;dropTarget=0;points=[[0,0.5],[1,0.5]];portConstraint=eastwest;top=0;left=0;right=0;bottom=0;rounded=0;fontFamily=Courier New;fontSize=16;perimeterSpacing=0;shadow=0;swimlaneFillColor=none;" parent="-QC0LfeOqHy5VNt_hiCN-1" vertex="1">
          <mxGeometry y="334" width="360" height="30" as="geometry" />
        </mxCell>
        <mxCell id="-QC0LfeOqHy5VNt_hiCN-15" value="" style="shape=partialRectangle;connectable=0;fillColor=none;top=0;left=0;bottom=0;right=0;editable=1;overflow=hidden;whiteSpace=wrap;html=1;rounded=0;fontFamily=Courier New;fontSize=16;perimeterSpacing=0;shadow=0;swimlaneFillColor=none;" parent="-QC0LfeOqHy5VNt_hiCN-14" vertex="1">
          <mxGeometry width="30" height="30" as="geometry">
            <mxRectangle width="30" height="30" as="alternateBounds" />
          </mxGeometry>
        </mxCell>
        <mxCell id="-QC0LfeOqHy5VNt_hiCN-16" value="accessible_TH&amp;nbsp; &amp;nbsp; &amp;nbsp; &amp;nbsp; &amp;nbsp; &amp;nbsp;&lt;span style=&quot;font-weight: 700;&quot;&gt;boolean&lt;/span&gt;" style="shape=partialRectangle;connectable=0;fillColor=none;top=0;left=0;bottom=0;right=0;align=left;spacingLeft=6;overflow=hidden;whiteSpace=wrap;html=1;rounded=0;fontFamily=Courier New;fontSize=16;perimeterSpacing=0;shadow=0;swimlaneFillColor=none;" parent="-QC0LfeOqHy5VNt_hiCN-14" vertex="1">
          <mxGeometry x="30" width="330" height="30" as="geometry">
            <mxRectangle width="330" height="30" as="alternateBounds" />
          </mxGeometry>
        </mxCell>
        <mxCell id="-QC0LfeOqHy5VNt_hiCN-32" value="" style="shape=tableRow;horizontal=0;startSize=0;swimlaneHead=0;swimlaneBody=0;fillColor=none;collapsible=0;dropTarget=0;points=[[0,0.5],[1,0.5]];portConstraint=eastwest;top=0;left=0;right=0;bottom=0;rounded=0;fontFamily=Courier New;fontSize=16;perimeterSpacing=0;shadow=0;swimlaneFillColor=none;" parent="-QC0LfeOqHy5VNt_hiCN-1" vertex="1">
          <mxGeometry y="364" width="360" height="30" as="geometry" />
        </mxCell>
        <mxCell id="-QC0LfeOqHy5VNt_hiCN-33" value="" style="shape=partialRectangle;connectable=0;fillColor=none;top=0;left=0;bottom=0;right=0;editable=1;overflow=hidden;whiteSpace=wrap;html=1;rounded=0;fontFamily=Courier New;fontSize=16;perimeterSpacing=0;shadow=0;swimlaneFillColor=none;" parent="-QC0LfeOqHy5VNt_hiCN-32" vertex="1">
          <mxGeometry width="30" height="30" as="geometry">
            <mxRectangle width="30" height="30" as="alternateBounds" />
          </mxGeometry>
        </mxCell>
        <mxCell id="-QC0LfeOqHy5VNt_hiCN-34" value="difficile_a_pourvoir&amp;nbsp; &amp;nbsp;&amp;nbsp;&lt;b&gt;boolean&lt;/b&gt;" style="shape=partialRectangle;connectable=0;fillColor=none;top=0;left=0;bottom=0;right=0;align=left;spacingLeft=6;overflow=hidden;whiteSpace=wrap;html=1;rounded=0;fontFamily=Courier New;fontSize=16;perimeterSpacing=0;shadow=0;swimlaneFillColor=none;" parent="-QC0LfeOqHy5VNt_hiCN-32" vertex="1">
          <mxGeometry x="30" width="330" height="30" as="geometry">
            <mxRectangle width="330" height="30" as="alternateBounds" />
          </mxGeometry>
        </mxCell>
        <mxCell id="-QC0LfeOqHy5VNt_hiCN-35" value="Offres_Metiers" style="shape=table;startSize=30;container=1;collapsible=1;childLayout=tableLayout;fixedRows=1;rowLines=0;fontStyle=1;align=center;resizeLast=1;html=1;whiteSpace=wrap;fillColor=#76608a;strokeColor=#432D57;fontColor=#ffffff;fontFamily=Courier New;fontSize=16;" parent="1" vertex="1">
          <mxGeometry x="-1337" y="922" width="180" height="90" as="geometry" />
        </mxCell>
        <mxCell id="-QC0LfeOqHy5VNt_hiCN-36" value="" style="shape=tableRow;horizontal=0;startSize=0;swimlaneHead=0;swimlaneBody=0;fillColor=none;collapsible=0;dropTarget=0;points=[[0,0.5],[1,0.5]];portConstraint=eastwest;top=0;left=0;right=0;bottom=0;html=1;fontFamily=Courier New;fontSize=16;" parent="-QC0LfeOqHy5VNt_hiCN-35" vertex="1">
          <mxGeometry y="30" width="180" height="30" as="geometry" />
        </mxCell>
        <mxCell id="-QC0LfeOqHy5VNt_hiCN-37" value="PK,FK1" style="shape=partialRectangle;connectable=0;fillColor=none;top=0;left=0;bottom=0;right=0;fontStyle=1;overflow=hidden;html=1;whiteSpace=wrap;fontFamily=Courier New;fontSize=16;" parent="-QC0LfeOqHy5VNt_hiCN-36" vertex="1">
          <mxGeometry width="60" height="30" as="geometry">
            <mxRectangle width="60" height="30" as="alternateBounds" />
          </mxGeometry>
        </mxCell>
        <mxCell id="-QC0LfeOqHy5VNt_hiCN-38" value="id_offre" style="shape=partialRectangle;connectable=0;fillColor=none;top=0;left=0;bottom=0;right=0;align=left;spacingLeft=6;fontStyle=5;overflow=hidden;html=1;whiteSpace=wrap;fontFamily=Courier New;fontSize=16;" parent="-QC0LfeOqHy5VNt_hiCN-36" vertex="1">
          <mxGeometry x="60" width="120" height="30" as="geometry">
            <mxRectangle width="120" height="30" as="alternateBounds" />
          </mxGeometry>
        </mxCell>
        <mxCell id="-QC0LfeOqHy5VNt_hiCN-39" value="" style="shape=tableRow;horizontal=0;startSize=0;swimlaneHead=0;swimlaneBody=0;fillColor=none;collapsible=0;dropTarget=0;points=[[0,0.5],[1,0.5]];portConstraint=eastwest;top=0;left=0;right=0;bottom=1;html=1;fontFamily=Courier New;fontSize=16;" parent="-QC0LfeOqHy5VNt_hiCN-35" vertex="1">
          <mxGeometry y="60" width="180" height="30" as="geometry" />
        </mxCell>
        <mxCell id="-QC0LfeOqHy5VNt_hiCN-40" value="PK,FK2" style="shape=partialRectangle;connectable=0;fillColor=none;top=0;left=0;bottom=0;right=0;fontStyle=1;overflow=hidden;html=1;whiteSpace=wrap;fontFamily=Courier New;fontSize=16;" parent="-QC0LfeOqHy5VNt_hiCN-39" vertex="1">
          <mxGeometry width="60" height="30" as="geometry">
            <mxRectangle width="60" height="30" as="alternateBounds" />
          </mxGeometry>
        </mxCell>
        <mxCell id="-QC0LfeOqHy5VNt_hiCN-41" value="code_rome" style="shape=partialRectangle;connectable=0;fillColor=none;top=0;left=0;bottom=0;right=0;align=left;spacingLeft=6;fontStyle=5;overflow=hidden;html=1;whiteSpace=wrap;fontFamily=Courier New;fontSize=16;" parent="-QC0LfeOqHy5VNt_hiCN-39" vertex="1">
          <mxGeometry x="60" width="120" height="30" as="geometry">
            <mxRectangle width="120" height="30" as="alternateBounds" />
          </mxGeometry>
        </mxCell>
        <mxCell id="-QC0LfeOqHy5VNt_hiCN-98" style="edgeStyle=orthogonalEdgeStyle;rounded=0;orthogonalLoop=1;jettySize=auto;html=1;exitX=1;exitY=0.5;exitDx=0;exitDy=0;entryX=0;entryY=0.5;entryDx=0;entryDy=0;endArrow=none;endFill=0;curved=1;fontFamily=Courier New;fontSize=16;" parent="1" source="-QC0LfeOqHy5VNt_hiCN-2" target="-QC0LfeOqHy5VNt_hiCN-36" edge="1">
          <mxGeometry relative="1" as="geometry">
            <mxPoint x="-1562" y="1077.0000000000002" as="sourcePoint" />
          </mxGeometry>
        </mxCell>
        <mxCell id="-QC0LfeOqHy5VNt_hiCN-102" value="&lt;u&gt;convention d&#39;écriture des cardinalités : française&lt;/u&gt;" style="text;html=1;align=center;verticalAlign=middle;resizable=0;points=[];autosize=1;strokeColor=none;fillColor=none;fontSize=16;fontFamily=Courier New;" parent="1" vertex="1">
          <mxGeometry x="-1962" y="1621" width="498" height="31" as="geometry" />
        </mxCell>
        <mxCell id="C7LOxqXwbHzqQDy3l2-N-1" value="&lt;font style=&quot;font-size: 24px;&quot;&gt;Entreprises&lt;/font&gt;" style="shape=table;startSize=30;container=1;collapsible=1;childLayout=tableLayout;fixedRows=1;rowLines=0;fontStyle=1;align=center;resizeLast=1;html=1;fillColor=#ffe6cc;strokeColor=#d79b00;rounded=0;fontFamily=Courier New;fontSize=16;" parent="1" vertex="1">
          <mxGeometry x="-2591" y="998" width="345" height="120" as="geometry" />
        </mxCell>
        <mxCell id="C7LOxqXwbHzqQDy3l2-N-2" value="" style="shape=tableRow;horizontal=0;startSize=0;swimlaneHead=0;swimlaneBody=0;fillColor=none;collapsible=0;dropTarget=0;points=[[0,0.5],[1,0.5]];portConstraint=eastwest;top=0;left=0;right=0;bottom=1;rounded=0;fontFamily=Courier New;fontSize=16;" parent="C7LOxqXwbHzqQDy3l2-N-1" vertex="1">
          <mxGeometry y="30" width="345" height="30" as="geometry" />
        </mxCell>
        <mxCell id="C7LOxqXwbHzqQDy3l2-N-3" value="PK" style="shape=partialRectangle;connectable=0;fillColor=none;top=0;left=0;bottom=0;right=0;fontStyle=1;overflow=hidden;whiteSpace=wrap;html=1;rounded=0;fontFamily=Courier New;fontSize=16;" parent="C7LOxqXwbHzqQDy3l2-N-2" vertex="1">
          <mxGeometry width="31.950042724609375" height="30" as="geometry">
            <mxRectangle width="31.950042724609375" height="30" as="alternateBounds" />
          </mxGeometry>
        </mxCell>
        <mxCell id="C7LOxqXwbHzqQDy3l2-N-4" value="&lt;u&gt;nom_entreprise&lt;/u&gt;&amp;nbsp; &amp;nbsp; &amp;nbsp; &amp;nbsp; varchar" style="shape=partialRectangle;connectable=0;fillColor=none;top=0;left=0;bottom=0;right=0;align=left;spacingLeft=6;fontStyle=1;overflow=hidden;whiteSpace=wrap;html=1;rounded=0;fontFamily=Courier New;fontSize=16;" parent="C7LOxqXwbHzqQDy3l2-N-2" vertex="1">
          <mxGeometry x="31.950042724609375" width="313.0499572753906" height="30" as="geometry">
            <mxRectangle width="313.0499572753906" height="30" as="alternateBounds" />
          </mxGeometry>
        </mxCell>
        <mxCell id="C7LOxqXwbHzqQDy3l2-N-5" value="" style="shape=tableRow;horizontal=0;startSize=0;swimlaneHead=0;swimlaneBody=0;fillColor=none;collapsible=0;dropTarget=0;points=[[0,0.5],[1,0.5]];portConstraint=eastwest;top=0;left=0;right=0;bottom=0;rounded=0;fontFamily=Courier New;fontSize=16;" parent="C7LOxqXwbHzqQDy3l2-N-1" vertex="1">
          <mxGeometry y="60" width="345" height="30" as="geometry" />
        </mxCell>
        <mxCell id="C7LOxqXwbHzqQDy3l2-N-6" value="" style="shape=partialRectangle;connectable=0;fillColor=none;top=0;left=0;bottom=0;right=0;editable=1;overflow=hidden;whiteSpace=wrap;html=1;rounded=0;fontFamily=Courier New;fontSize=16;" parent="C7LOxqXwbHzqQDy3l2-N-5" vertex="1">
          <mxGeometry width="31.950042724609375" height="30" as="geometry">
            <mxRectangle width="31.950042724609375" height="30" as="alternateBounds" />
          </mxGeometry>
        </mxCell>
        <mxCell id="C7LOxqXwbHzqQDy3l2-N-7" value="entreprise_adaptee&amp;nbsp; &amp;nbsp; &lt;b&gt;boolean&lt;/b&gt;" style="shape=partialRectangle;connectable=0;fillColor=none;top=0;left=0;bottom=0;right=0;align=left;spacingLeft=6;overflow=hidden;whiteSpace=wrap;html=1;rounded=0;fontFamily=Courier New;fontSize=16;" parent="C7LOxqXwbHzqQDy3l2-N-5" vertex="1">
          <mxGeometry x="31.950042724609375" width="313.0499572753906" height="30" as="geometry">
            <mxRectangle width="313.0499572753906" height="30" as="alternateBounds" />
          </mxGeometry>
        </mxCell>
        <mxCell id="C7LOxqXwbHzqQDy3l2-N-39" value="" style="shape=tableRow;horizontal=0;startSize=0;swimlaneHead=0;swimlaneBody=0;fillColor=none;collapsible=0;dropTarget=0;points=[[0,0.5],[1,0.5]];portConstraint=eastwest;top=0;left=0;right=0;bottom=0;rounded=0;fontFamily=Courier New;fontSize=16;" parent="C7LOxqXwbHzqQDy3l2-N-1" vertex="1">
          <mxGeometry y="90" width="345" height="30" as="geometry" />
        </mxCell>
        <mxCell id="C7LOxqXwbHzqQDy3l2-N-40" value="FK" style="shape=partialRectangle;connectable=0;fillColor=none;top=0;left=0;bottom=0;right=0;editable=1;overflow=hidden;whiteSpace=wrap;html=1;rounded=0;fontFamily=Courier New;fontSize=16;" parent="C7LOxqXwbHzqQDy3l2-N-39" vertex="1">
          <mxGeometry width="31.950042724609375" height="30" as="geometry">
            <mxRectangle width="31.950042724609375" height="30" as="alternateBounds" />
          </mxGeometry>
        </mxCell>
        <mxCell id="C7LOxqXwbHzqQDy3l2-N-41" value="id_offre" style="shape=partialRectangle;connectable=0;fillColor=none;top=0;left=0;bottom=0;right=0;align=left;spacingLeft=6;overflow=hidden;whiteSpace=wrap;html=1;rounded=0;fontFamily=Courier New;fontSize=16;" parent="C7LOxqXwbHzqQDy3l2-N-39" vertex="1">
          <mxGeometry x="31.950042724609375" width="313.0499572753906" height="30" as="geometry">
            <mxRectangle width="313.0499572753906" height="30" as="alternateBounds" />
          </mxGeometry>
        </mxCell>
        <mxCell id="C7LOxqXwbHzqQDy3l2-N-42" value="&lt;font style=&quot;font-size: 24px;&quot;&gt;Metiers&lt;/font&gt;" style="shape=table;startSize=30;container=1;collapsible=1;childLayout=tableLayout;fixedRows=1;rowLines=0;fontStyle=1;align=center;resizeLast=1;html=1;fillColor=#ffe6cc;strokeColor=#d79b00;rounded=0;fontFamily=Courier New;fontSize=16;" parent="1" vertex="1">
          <mxGeometry x="-1462" y="759" width="308" height="90" as="geometry" />
        </mxCell>
        <mxCell id="C7LOxqXwbHzqQDy3l2-N-43" value="" style="shape=tableRow;horizontal=0;startSize=0;swimlaneHead=0;swimlaneBody=0;fillColor=none;collapsible=0;dropTarget=0;points=[[0,0.5],[1,0.5]];portConstraint=eastwest;top=0;left=0;right=0;bottom=1;rounded=0;fontFamily=Courier New;fontSize=16;" parent="C7LOxqXwbHzqQDy3l2-N-42" vertex="1">
          <mxGeometry y="30" width="308" height="30" as="geometry" />
        </mxCell>
        <mxCell id="C7LOxqXwbHzqQDy3l2-N-44" value="PK" style="shape=partialRectangle;connectable=0;fillColor=none;top=0;left=0;bottom=0;right=0;fontStyle=1;overflow=hidden;whiteSpace=wrap;html=1;rounded=0;fontFamily=Courier New;fontSize=16;" parent="C7LOxqXwbHzqQDy3l2-N-43" vertex="1">
          <mxGeometry width="31.950042724609375" height="30" as="geometry">
            <mxRectangle width="31.950042724609375" height="30" as="alternateBounds" />
          </mxGeometry>
        </mxCell>
        <mxCell id="C7LOxqXwbHzqQDy3l2-N-45" value="&lt;u&gt;code_rome&lt;/u&gt;&amp;nbsp; &amp;nbsp; &amp;nbsp; &amp;nbsp; &amp;nbsp; varchar" style="shape=partialRectangle;connectable=0;fillColor=none;top=0;left=0;bottom=0;right=0;align=left;spacingLeft=6;fontStyle=1;overflow=hidden;whiteSpace=wrap;html=1;rounded=0;fontFamily=Courier New;fontSize=16;" parent="C7LOxqXwbHzqQDy3l2-N-43" vertex="1">
          <mxGeometry x="31.950042724609375" width="276.0499572753906" height="30" as="geometry">
            <mxRectangle width="276.0499572753906" height="30" as="alternateBounds" />
          </mxGeometry>
        </mxCell>
        <mxCell id="C7LOxqXwbHzqQDy3l2-N-49" value="" style="shape=tableRow;horizontal=0;startSize=0;swimlaneHead=0;swimlaneBody=0;fillColor=none;collapsible=0;dropTarget=0;points=[[0,0.5],[1,0.5]];portConstraint=eastwest;top=0;left=0;right=0;bottom=0;rounded=0;fontFamily=Courier New;fontSize=16;" parent="C7LOxqXwbHzqQDy3l2-N-42" vertex="1">
          <mxGeometry y="60" width="308" height="30" as="geometry" />
        </mxCell>
        <mxCell id="C7LOxqXwbHzqQDy3l2-N-50" value="" style="shape=partialRectangle;connectable=0;fillColor=none;top=0;left=0;bottom=0;right=0;editable=1;overflow=hidden;whiteSpace=wrap;html=1;rounded=0;fontFamily=Courier New;fontSize=16;" parent="C7LOxqXwbHzqQDy3l2-N-49" vertex="1">
          <mxGeometry width="31.950042724609375" height="30" as="geometry">
            <mxRectangle width="31.950042724609375" height="30" as="alternateBounds" />
          </mxGeometry>
        </mxCell>
        <mxCell id="C7LOxqXwbHzqQDy3l2-N-51" value="appellation_rome&amp;nbsp; &amp;nbsp;&lt;b&gt;varchar&lt;/b&gt;" style="shape=partialRectangle;connectable=0;fillColor=none;top=0;left=0;bottom=0;right=0;align=left;spacingLeft=6;overflow=hidden;whiteSpace=wrap;html=1;rounded=0;fontFamily=Courier New;fontSize=16;" parent="C7LOxqXwbHzqQDy3l2-N-49" vertex="1">
          <mxGeometry x="31.950042724609375" width="276.0499572753906" height="30" as="geometry">
            <mxRectangle width="276.0499572753906" height="30" as="alternateBounds" />
          </mxGeometry>
        </mxCell>
        <mxCell id="C7LOxqXwbHzqQDy3l2-N-77" value="&lt;font style=&quot;font-size: 24px;&quot;&gt;Contrats&lt;/font&gt;" style="shape=table;startSize=30;container=1;collapsible=1;childLayout=tableLayout;fixedRows=1;rowLines=0;fontStyle=1;align=center;resizeLast=1;html=1;fillColor=#ffe6cc;strokeColor=#d79b00;rounded=0;fontFamily=Courier New;fontSize=16;" parent="1" vertex="1">
          <mxGeometry x="-2846" y="1173" width="426" height="420" as="geometry" />
        </mxCell>
        <mxCell id="C7LOxqXwbHzqQDy3l2-N-78" value="" style="shape=tableRow;horizontal=0;startSize=0;swimlaneHead=0;swimlaneBody=0;fillColor=none;collapsible=0;dropTarget=0;points=[[0,0.5],[1,0.5]];portConstraint=eastwest;top=0;left=0;right=0;bottom=1;rounded=0;fontFamily=Courier New;fontSize=16;fontStyle=4" parent="C7LOxqXwbHzqQDy3l2-N-77" vertex="1">
          <mxGeometry y="30" width="426" height="30" as="geometry" />
        </mxCell>
        <mxCell id="C7LOxqXwbHzqQDy3l2-N-79" value="PK" style="shape=partialRectangle;connectable=0;fillColor=none;top=0;left=0;bottom=0;right=0;fontStyle=1;overflow=hidden;whiteSpace=wrap;html=1;rounded=0;fontFamily=Courier New;fontSize=16;" parent="C7LOxqXwbHzqQDy3l2-N-78" vertex="1">
          <mxGeometry width="31.950042724609375" height="30" as="geometry">
            <mxRectangle width="31.950042724609375" height="30" as="alternateBounds" />
          </mxGeometry>
        </mxCell>
        <mxCell id="C7LOxqXwbHzqQDy3l2-N-80" value="&lt;u&gt;id_contrat&lt;/u&gt;&amp;nbsp; &amp;nbsp; &amp;nbsp; &amp;nbsp; &amp;nbsp; &amp;nbsp; &amp;nbsp; &amp;nbsp; &amp;nbsp; &amp;nbsp; &amp;nbsp; serial" style="shape=partialRectangle;connectable=0;fillColor=none;top=0;left=0;bottom=0;right=0;align=left;spacingLeft=6;fontStyle=1;overflow=hidden;whiteSpace=wrap;html=1;rounded=0;fontFamily=Courier New;fontSize=16;" parent="C7LOxqXwbHzqQDy3l2-N-78" vertex="1">
          <mxGeometry x="31.950042724609375" width="394.0499572753906" height="30" as="geometry">
            <mxRectangle width="394.0499572753906" height="30" as="alternateBounds" />
          </mxGeometry>
        </mxCell>
        <mxCell id="C7LOxqXwbHzqQDy3l2-N-81" value="" style="shape=tableRow;horizontal=0;startSize=0;swimlaneHead=0;swimlaneBody=0;fillColor=none;collapsible=0;dropTarget=0;points=[[0,0.5],[1,0.5]];portConstraint=eastwest;top=0;left=0;right=0;bottom=0;rounded=0;fontFamily=Courier New;fontSize=16;" parent="C7LOxqXwbHzqQDy3l2-N-77" vertex="1">
          <mxGeometry y="60" width="426" height="30" as="geometry" />
        </mxCell>
        <mxCell id="C7LOxqXwbHzqQDy3l2-N-82" value="" style="shape=partialRectangle;connectable=0;fillColor=none;top=0;left=0;bottom=0;right=0;editable=1;overflow=hidden;whiteSpace=wrap;html=1;rounded=0;fontFamily=Courier New;fontSize=16;" parent="C7LOxqXwbHzqQDy3l2-N-81" vertex="1">
          <mxGeometry width="31.950042724609375" height="30" as="geometry">
            <mxRectangle width="31.950042724609375" height="30" as="alternateBounds" />
          </mxGeometry>
        </mxCell>
        <mxCell id="C7LOxqXwbHzqQDy3l2-N-83" value="type_contrat_code&amp;nbsp; &amp;nbsp; &amp;nbsp; &amp;nbsp; &amp;nbsp; &amp;nbsp; &amp;nbsp; &amp;nbsp;&lt;b&gt;varchar&lt;/b&gt;" style="shape=partialRectangle;connectable=0;fillColor=none;top=0;left=0;bottom=0;right=0;align=left;spacingLeft=6;overflow=hidden;whiteSpace=wrap;html=1;rounded=0;fontFamily=Courier New;fontSize=16;" parent="C7LOxqXwbHzqQDy3l2-N-81" vertex="1">
          <mxGeometry x="31.950042724609375" width="394.0499572753906" height="30" as="geometry">
            <mxRectangle width="394.0499572753906" height="30" as="alternateBounds" />
          </mxGeometry>
        </mxCell>
        <mxCell id="C7LOxqXwbHzqQDy3l2-N-87" value="" style="shape=tableRow;horizontal=0;startSize=0;swimlaneHead=0;swimlaneBody=0;fillColor=none;collapsible=0;dropTarget=0;points=[[0,0.5],[1,0.5]];portConstraint=eastwest;top=0;left=0;right=0;bottom=0;rounded=0;fontFamily=Courier New;fontSize=16;" parent="C7LOxqXwbHzqQDy3l2-N-77" vertex="1">
          <mxGeometry y="90" width="426" height="30" as="geometry" />
        </mxCell>
        <mxCell id="C7LOxqXwbHzqQDy3l2-N-88" value="" style="shape=partialRectangle;connectable=0;fillColor=none;top=0;left=0;bottom=0;right=0;editable=1;overflow=hidden;whiteSpace=wrap;html=1;rounded=0;fontFamily=Courier New;fontSize=16;" parent="C7LOxqXwbHzqQDy3l2-N-87" vertex="1">
          <mxGeometry width="31.950042724609375" height="30" as="geometry">
            <mxRectangle width="31.950042724609375" height="30" as="alternateBounds" />
          </mxGeometry>
        </mxCell>
        <mxCell id="C7LOxqXwbHzqQDy3l2-N-89" value="type_contrat_libelle&amp;nbsp; &amp;nbsp; &amp;nbsp; &amp;nbsp; &amp;nbsp; &amp;nbsp; &lt;b&gt;varchar&lt;/b&gt;" style="shape=partialRectangle;connectable=0;fillColor=none;top=0;left=0;bottom=0;right=0;align=left;spacingLeft=6;overflow=hidden;whiteSpace=wrap;html=1;rounded=0;fontFamily=Courier New;fontSize=16;" parent="C7LOxqXwbHzqQDy3l2-N-87" vertex="1">
          <mxGeometry x="31.950042724609375" width="394.0499572753906" height="30" as="geometry">
            <mxRectangle width="394.0499572753906" height="30" as="alternateBounds" />
          </mxGeometry>
        </mxCell>
        <mxCell id="C7LOxqXwbHzqQDy3l2-N-90" value="" style="shape=tableRow;horizontal=0;startSize=0;swimlaneHead=0;swimlaneBody=0;fillColor=none;collapsible=0;dropTarget=0;points=[[0,0.5],[1,0.5]];portConstraint=eastwest;top=0;left=0;right=0;bottom=0;rounded=0;fontFamily=Courier New;fontSize=16;" parent="C7LOxqXwbHzqQDy3l2-N-77" vertex="1">
          <mxGeometry y="120" width="426" height="30" as="geometry" />
        </mxCell>
        <mxCell id="C7LOxqXwbHzqQDy3l2-N-91" value="" style="shape=partialRectangle;connectable=0;fillColor=none;top=0;left=0;bottom=0;right=0;editable=1;overflow=hidden;whiteSpace=wrap;html=1;rounded=0;fontFamily=Courier New;fontSize=16;" parent="C7LOxqXwbHzqQDy3l2-N-90" vertex="1">
          <mxGeometry width="31.950042724609375" height="30" as="geometry">
            <mxRectangle width="31.950042724609375" height="30" as="alternateBounds" />
          </mxGeometry>
        </mxCell>
        <mxCell id="C7LOxqXwbHzqQDy3l2-N-92" value="nature_contrat&amp;nbsp; &amp;nbsp; &amp;nbsp; &amp;nbsp; &amp;nbsp; &amp;nbsp; &amp;nbsp; &amp;nbsp; &amp;nbsp; &lt;b&gt;varchar&lt;/b&gt;" style="shape=partialRectangle;connectable=0;fillColor=none;top=0;left=0;bottom=0;right=0;align=left;spacingLeft=6;overflow=hidden;whiteSpace=wrap;html=1;rounded=0;fontFamily=Courier New;fontSize=16;" parent="C7LOxqXwbHzqQDy3l2-N-90" vertex="1">
          <mxGeometry x="31.950042724609375" width="394.0499572753906" height="30" as="geometry">
            <mxRectangle width="394.0499572753906" height="30" as="alternateBounds" />
          </mxGeometry>
        </mxCell>
        <mxCell id="C7LOxqXwbHzqQDy3l2-N-150" value="" style="shape=tableRow;horizontal=0;startSize=0;swimlaneHead=0;swimlaneBody=0;fillColor=none;collapsible=0;dropTarget=0;points=[[0,0.5],[1,0.5]];portConstraint=eastwest;top=0;left=0;right=0;bottom=0;rounded=0;fontFamily=Courier New;fontSize=16;" parent="C7LOxqXwbHzqQDy3l2-N-77" vertex="1">
          <mxGeometry y="150" width="426" height="30" as="geometry" />
        </mxCell>
        <mxCell id="C7LOxqXwbHzqQDy3l2-N-151" value="" style="shape=partialRectangle;connectable=0;fillColor=none;top=0;left=0;bottom=0;right=0;editable=1;overflow=hidden;whiteSpace=wrap;html=1;rounded=0;fontFamily=Courier New;fontSize=16;" parent="C7LOxqXwbHzqQDy3l2-N-150" vertex="1">
          <mxGeometry width="31.950042724609375" height="30" as="geometry">
            <mxRectangle width="31.950042724609375" height="30" as="alternateBounds" />
          </mxGeometry>
        </mxCell>
        <mxCell id="C7LOxqXwbHzqQDy3l2-N-152" value="duree_travail_l&lt;span style=&quot;background-color: transparent; color: light-dark(rgb(0, 0, 0), rgb(255, 255, 255));&quot;&gt;ibelle&amp;nbsp; &amp;nbsp; &amp;nbsp; &amp;nbsp; &amp;nbsp; &amp;nbsp;&lt;b&gt;varchar&lt;/b&gt;&lt;/span&gt;" style="shape=partialRectangle;connectable=0;fillColor=none;top=0;left=0;bottom=0;right=0;align=left;spacingLeft=6;overflow=hidden;whiteSpace=wrap;html=1;rounded=0;fontFamily=Courier New;fontSize=16;" parent="C7LOxqXwbHzqQDy3l2-N-150" vertex="1">
          <mxGeometry x="31.950042724609375" width="394.0499572753906" height="30" as="geometry">
            <mxRectangle width="394.0499572753906" height="30" as="alternateBounds" />
          </mxGeometry>
        </mxCell>
        <mxCell id="C7LOxqXwbHzqQDy3l2-N-153" value="" style="shape=tableRow;horizontal=0;startSize=0;swimlaneHead=0;swimlaneBody=0;fillColor=none;collapsible=0;dropTarget=0;points=[[0,0.5],[1,0.5]];portConstraint=eastwest;top=0;left=0;right=0;bottom=0;rounded=0;fontFamily=Courier New;fontSize=16;" parent="C7LOxqXwbHzqQDy3l2-N-77" vertex="1">
          <mxGeometry y="180" width="426" height="30" as="geometry" />
        </mxCell>
        <mxCell id="C7LOxqXwbHzqQDy3l2-N-154" value="" style="shape=partialRectangle;connectable=0;fillColor=none;top=0;left=0;bottom=0;right=0;editable=1;overflow=hidden;whiteSpace=wrap;html=1;rounded=0;fontFamily=Courier New;fontSize=16;" parent="C7LOxqXwbHzqQDy3l2-N-153" vertex="1">
          <mxGeometry width="31.950042724609375" height="30" as="geometry">
            <mxRectangle width="31.950042724609375" height="30" as="alternateBounds" />
          </mxGeometry>
        </mxCell>
        <mxCell id="C7LOxqXwbHzqQDy3l2-N-155" value="duree_travail_libelle_converti&amp;nbsp; &lt;b&gt;varchar&lt;/b&gt;" style="shape=partialRectangle;connectable=0;fillColor=none;top=0;left=0;bottom=0;right=0;align=left;spacingLeft=6;overflow=hidden;whiteSpace=wrap;html=1;rounded=0;fontFamily=Courier New;fontSize=16;" parent="C7LOxqXwbHzqQDy3l2-N-153" vertex="1">
          <mxGeometry x="31.950042724609375" width="394.0499572753906" height="30" as="geometry">
            <mxRectangle width="394.0499572753906" height="30" as="alternateBounds" />
          </mxGeometry>
        </mxCell>
        <mxCell id="C7LOxqXwbHzqQDy3l2-N-242" value="" style="shape=tableRow;horizontal=0;startSize=0;swimlaneHead=0;swimlaneBody=0;fillColor=none;collapsible=0;dropTarget=0;points=[[0,0.5],[1,0.5]];portConstraint=eastwest;top=0;left=0;right=0;bottom=0;rounded=0;fontFamily=Courier New;fontSize=16;" parent="C7LOxqXwbHzqQDy3l2-N-77" vertex="1">
          <mxGeometry y="210" width="426" height="30" as="geometry" />
        </mxCell>
        <mxCell id="C7LOxqXwbHzqQDy3l2-N-243" value="" style="shape=partialRectangle;connectable=0;fillColor=none;top=0;left=0;bottom=0;right=0;editable=1;overflow=hidden;whiteSpace=wrap;html=1;rounded=0;fontFamily=Courier New;fontSize=16;" parent="C7LOxqXwbHzqQDy3l2-N-242" vertex="1">
          <mxGeometry width="31.950042724609375" height="30" as="geometry">
            <mxRectangle width="31.950042724609375" height="30" as="alternateBounds" />
          </mxGeometry>
        </mxCell>
        <mxCell id="C7LOxqXwbHzqQDy3l2-N-244" value="deplacement_code&amp;nbsp; &amp;nbsp; &amp;nbsp; &amp;nbsp; &amp;nbsp; &amp;nbsp; &amp;nbsp; &amp;nbsp;&amp;nbsp;&lt;b&gt;varchar&lt;/b&gt;" style="shape=partialRectangle;connectable=0;fillColor=none;top=0;left=0;bottom=0;right=0;align=left;spacingLeft=6;overflow=hidden;whiteSpace=wrap;html=1;rounded=0;fontFamily=Courier New;fontSize=16;" parent="C7LOxqXwbHzqQDy3l2-N-242" vertex="1">
          <mxGeometry x="31.950042724609375" width="394.0499572753906" height="30" as="geometry">
            <mxRectangle width="394.0499572753906" height="30" as="alternateBounds" />
          </mxGeometry>
        </mxCell>
        <mxCell id="C7LOxqXwbHzqQDy3l2-N-350" value="" style="shape=tableRow;horizontal=0;startSize=0;swimlaneHead=0;swimlaneBody=0;fillColor=none;collapsible=0;dropTarget=0;points=[[0,0.5],[1,0.5]];portConstraint=eastwest;top=0;left=0;right=0;bottom=0;rounded=0;fontFamily=Courier New;fontSize=16;" parent="C7LOxqXwbHzqQDy3l2-N-77" vertex="1">
          <mxGeometry y="240" width="426" height="30" as="geometry" />
        </mxCell>
        <mxCell id="C7LOxqXwbHzqQDy3l2-N-351" value="" style="shape=partialRectangle;connectable=0;fillColor=none;top=0;left=0;bottom=0;right=0;editable=1;overflow=hidden;whiteSpace=wrap;html=1;rounded=0;fontFamily=Courier New;fontSize=16;" parent="C7LOxqXwbHzqQDy3l2-N-350" vertex="1">
          <mxGeometry width="31.950042724609375" height="30" as="geometry">
            <mxRectangle width="31.950042724609375" height="30" as="alternateBounds" />
          </mxGeometry>
        </mxCell>
        <mxCell id="C7LOxqXwbHzqQDy3l2-N-352" value="deplacement_description&amp;nbsp; &amp;nbsp; &amp;nbsp; &amp;nbsp; &amp;nbsp;&lt;b&gt;varchar&lt;/b&gt;" style="shape=partialRectangle;connectable=0;fillColor=none;top=0;left=0;bottom=0;right=0;align=left;spacingLeft=6;overflow=hidden;whiteSpace=wrap;html=1;rounded=0;fontFamily=Courier New;fontSize=16;" parent="C7LOxqXwbHzqQDy3l2-N-350" vertex="1">
          <mxGeometry x="31.950042724609375" width="394.0499572753906" height="30" as="geometry">
            <mxRectangle width="394.0499572753906" height="30" as="alternateBounds" />
          </mxGeometry>
        </mxCell>
        <mxCell id="C7LOxqXwbHzqQDy3l2-N-220" value="" style="shape=tableRow;horizontal=0;startSize=0;swimlaneHead=0;swimlaneBody=0;fillColor=none;collapsible=0;dropTarget=0;points=[[0,0.5],[1,0.5]];portConstraint=eastwest;top=0;left=0;right=0;bottom=0;rounded=0;fontFamily=Courier New;fontSize=16;" parent="C7LOxqXwbHzqQDy3l2-N-77" vertex="1">
          <mxGeometry y="270" width="426" height="30" as="geometry" />
        </mxCell>
        <mxCell id="C7LOxqXwbHzqQDy3l2-N-221" value="" style="shape=partialRectangle;connectable=0;fillColor=none;top=0;left=0;bottom=0;right=0;editable=1;overflow=hidden;whiteSpace=wrap;html=1;rounded=0;fontFamily=Courier New;fontSize=16;" parent="C7LOxqXwbHzqQDy3l2-N-220" vertex="1">
          <mxGeometry width="31.950042724609375" height="30" as="geometry">
            <mxRectangle width="31.950042724609375" height="30" as="alternateBounds" />
          </mxGeometry>
        </mxCell>
        <mxCell id="C7LOxqXwbHzqQDy3l2-N-222" value="salaire_libelle&amp;nbsp; &amp;nbsp; &amp;nbsp; &amp;nbsp; &amp;nbsp; &amp;nbsp; &amp;nbsp; &amp;nbsp;&amp;nbsp;&amp;nbsp;&lt;b&gt;varchar&lt;/b&gt;" style="shape=partialRectangle;connectable=0;fillColor=none;top=0;left=0;bottom=0;right=0;align=left;spacingLeft=6;overflow=hidden;whiteSpace=wrap;html=1;rounded=0;fontFamily=Courier New;fontSize=16;" parent="C7LOxqXwbHzqQDy3l2-N-220" vertex="1">
          <mxGeometry x="31.950042724609375" width="394.0499572753906" height="30" as="geometry">
            <mxRectangle width="394.0499572753906" height="30" as="alternateBounds" />
          </mxGeometry>
        </mxCell>
        <mxCell id="C7LOxqXwbHzqQDy3l2-N-223" value="" style="shape=tableRow;horizontal=0;startSize=0;swimlaneHead=0;swimlaneBody=0;fillColor=none;collapsible=0;dropTarget=0;points=[[0,0.5],[1,0.5]];portConstraint=eastwest;top=0;left=0;right=0;bottom=0;rounded=0;fontFamily=Courier New;fontSize=16;" parent="C7LOxqXwbHzqQDy3l2-N-77" vertex="1">
          <mxGeometry y="300" width="426" height="30" as="geometry" />
        </mxCell>
        <mxCell id="C7LOxqXwbHzqQDy3l2-N-224" value="" style="shape=partialRectangle;connectable=0;fillColor=none;top=0;left=0;bottom=0;right=0;editable=1;overflow=hidden;whiteSpace=wrap;html=1;rounded=0;fontFamily=Courier New;fontSize=16;" parent="C7LOxqXwbHzqQDy3l2-N-223" vertex="1">
          <mxGeometry width="31.950042724609375" height="30" as="geometry">
            <mxRectangle width="31.950042724609375" height="30" as="alternateBounds" />
          </mxGeometry>
        </mxCell>
        <mxCell id="C7LOxqXwbHzqQDy3l2-N-225" value="salaire_complement&amp;nbsp; &amp;nbsp; &amp;nbsp; &amp;nbsp; &amp;nbsp; &amp;nbsp; &amp;nbsp;&amp;nbsp;&lt;b&gt;varchar&lt;/b&gt;" style="shape=partialRectangle;connectable=0;fillColor=none;top=0;left=0;bottom=0;right=0;align=left;spacingLeft=6;overflow=hidden;whiteSpace=wrap;html=1;rounded=0;fontFamily=Courier New;fontSize=16;" parent="C7LOxqXwbHzqQDy3l2-N-223" vertex="1">
          <mxGeometry x="31.950042724609375" width="394.0499572753906" height="30" as="geometry">
            <mxRectangle width="394.0499572753906" height="30" as="alternateBounds" />
          </mxGeometry>
        </mxCell>
        <mxCell id="C7LOxqXwbHzqQDy3l2-N-199" value="" style="shape=tableRow;horizontal=0;startSize=0;swimlaneHead=0;swimlaneBody=0;fillColor=none;collapsible=0;dropTarget=0;points=[[0,0.5],[1,0.5]];portConstraint=eastwest;top=0;left=0;right=0;bottom=0;rounded=0;fontFamily=Courier New;fontSize=16;" parent="C7LOxqXwbHzqQDy3l2-N-77" vertex="1">
          <mxGeometry y="330" width="426" height="30" as="geometry" />
        </mxCell>
        <mxCell id="C7LOxqXwbHzqQDy3l2-N-200" value="" style="shape=partialRectangle;connectable=0;fillColor=none;top=0;left=0;bottom=0;right=0;editable=1;overflow=hidden;whiteSpace=wrap;html=1;rounded=0;fontFamily=Courier New;fontSize=16;" parent="C7LOxqXwbHzqQDy3l2-N-199" vertex="1">
          <mxGeometry width="31.950042724609375" height="30" as="geometry">
            <mxRectangle width="31.950042724609375" height="30" as="alternateBounds" />
          </mxGeometry>
        </mxCell>
        <mxCell id="C7LOxqXwbHzqQDy3l2-N-201" value="condition_exercice&amp;nbsp; &amp;nbsp; &amp;nbsp; &amp;nbsp; &amp;nbsp; &amp;nbsp; &amp;nbsp;&amp;nbsp;&lt;b&gt;varchar&lt;/b&gt;" style="shape=partialRectangle;connectable=0;fillColor=none;top=0;left=0;bottom=0;right=0;align=left;spacingLeft=6;overflow=hidden;whiteSpace=wrap;html=1;rounded=0;fontFamily=Courier New;fontSize=16;" parent="C7LOxqXwbHzqQDy3l2-N-199" vertex="1">
          <mxGeometry x="31.950042724609375" width="394.0499572753906" height="30" as="geometry">
            <mxRectangle width="394.0499572753906" height="30" as="alternateBounds" />
          </mxGeometry>
        </mxCell>
        <mxCell id="C7LOxqXwbHzqQDy3l2-N-156" value="" style="shape=tableRow;horizontal=0;startSize=0;swimlaneHead=0;swimlaneBody=0;fillColor=none;collapsible=0;dropTarget=0;points=[[0,0.5],[1,0.5]];portConstraint=eastwest;top=0;left=0;right=0;bottom=0;rounded=0;fontFamily=Courier New;fontSize=16;" parent="C7LOxqXwbHzqQDy3l2-N-77" vertex="1">
          <mxGeometry y="360" width="426" height="30" as="geometry" />
        </mxCell>
        <mxCell id="C7LOxqXwbHzqQDy3l2-N-157" value="" style="shape=partialRectangle;connectable=0;fillColor=none;top=0;left=0;bottom=0;right=0;editable=1;overflow=hidden;whiteSpace=wrap;html=1;rounded=0;fontFamily=Courier New;fontSize=16;" parent="C7LOxqXwbHzqQDy3l2-N-156" vertex="1">
          <mxGeometry width="31.950042724609375" height="30" as="geometry">
            <mxRectangle width="31.950042724609375" height="30" as="alternateBounds" />
          </mxGeometry>
        </mxCell>
        <mxCell id="C7LOxqXwbHzqQDy3l2-N-158" value="alternance&amp;nbsp; &amp;nbsp; &amp;nbsp; &amp;nbsp; &amp;nbsp; &amp;nbsp; &amp;nbsp; &amp;nbsp; &amp;nbsp; &amp;nbsp; &amp;nbsp; &lt;b&gt;boolean&lt;/b&gt;" style="shape=partialRectangle;connectable=0;fillColor=none;top=0;left=0;bottom=0;right=0;align=left;spacingLeft=6;overflow=hidden;whiteSpace=wrap;html=1;rounded=0;fontFamily=Courier New;fontSize=16;" parent="C7LOxqXwbHzqQDy3l2-N-156" vertex="1">
          <mxGeometry x="31.950042724609375" width="394.0499572753906" height="30" as="geometry">
            <mxRectangle width="394.0499572753906" height="30" as="alternateBounds" />
          </mxGeometry>
        </mxCell>
        <mxCell id="C7LOxqXwbHzqQDy3l2-N-84" value="" style="shape=tableRow;horizontal=0;startSize=0;swimlaneHead=0;swimlaneBody=0;fillColor=none;collapsible=0;dropTarget=0;points=[[0,0.5],[1,0.5]];portConstraint=eastwest;top=0;left=0;right=0;bottom=0;rounded=0;fontFamily=Courier New;fontSize=16;" parent="C7LOxqXwbHzqQDy3l2-N-77" vertex="1">
          <mxGeometry y="390" width="426" height="30" as="geometry" />
        </mxCell>
        <mxCell id="C7LOxqXwbHzqQDy3l2-N-85" value="FK" style="shape=partialRectangle;connectable=0;fillColor=none;top=0;left=0;bottom=0;right=0;editable=1;overflow=hidden;whiteSpace=wrap;html=1;rounded=0;fontFamily=Courier New;fontSize=16;" parent="C7LOxqXwbHzqQDy3l2-N-84" vertex="1">
          <mxGeometry width="31.950042724609375" height="30" as="geometry">
            <mxRectangle width="31.950042724609375" height="30" as="alternateBounds" />
          </mxGeometry>
        </mxCell>
        <mxCell id="C7LOxqXwbHzqQDy3l2-N-86" value="id_offre" style="shape=partialRectangle;connectable=0;fillColor=none;top=0;left=0;bottom=0;right=0;align=left;spacingLeft=6;overflow=hidden;whiteSpace=wrap;html=1;rounded=0;fontFamily=Courier New;fontSize=16;" parent="C7LOxqXwbHzqQDy3l2-N-84" vertex="1">
          <mxGeometry x="31.950042724609375" width="394.0499572753906" height="30" as="geometry">
            <mxRectangle width="394.0499572753906" height="30" as="alternateBounds" />
          </mxGeometry>
        </mxCell>
        <mxCell id="C7LOxqXwbHzqQDy3l2-N-93" value="&lt;font style=&quot;font-size: 24px;&quot;&gt;QualificationsRequises&lt;/font&gt;" style="shape=table;startSize=30;container=1;collapsible=1;childLayout=tableLayout;fixedRows=1;rowLines=0;fontStyle=1;align=center;resizeLast=1;html=1;fillColor=#ffe6cc;strokeColor=#d79b00;rounded=0;fontFamily=Courier New;fontSize=16;" parent="1" vertex="1">
          <mxGeometry x="-1295" y="1088" width="503" height="480" as="geometry" />
        </mxCell>
        <mxCell id="C7LOxqXwbHzqQDy3l2-N-94" value="" style="shape=tableRow;horizontal=0;startSize=0;swimlaneHead=0;swimlaneBody=0;fillColor=none;collapsible=0;dropTarget=0;points=[[0,0.5],[1,0.5]];portConstraint=eastwest;top=0;left=0;right=0;bottom=1;rounded=0;fontFamily=Courier New;fontSize=16;" parent="C7LOxqXwbHzqQDy3l2-N-93" vertex="1">
          <mxGeometry y="30" width="503" height="30" as="geometry" />
        </mxCell>
        <mxCell id="C7LOxqXwbHzqQDy3l2-N-95" value="PK" style="shape=partialRectangle;connectable=0;fillColor=none;top=0;left=0;bottom=0;right=0;fontStyle=1;overflow=hidden;whiteSpace=wrap;html=1;rounded=0;fontFamily=Courier New;fontSize=16;" parent="C7LOxqXwbHzqQDy3l2-N-94" vertex="1">
          <mxGeometry width="31.950042724609375" height="30" as="geometry">
            <mxRectangle width="31.950042724609375" height="30" as="alternateBounds" />
          </mxGeometry>
        </mxCell>
        <mxCell id="C7LOxqXwbHzqQDy3l2-N-96" value="&lt;u&gt;id_exigence&lt;/u&gt;&amp;nbsp; &amp;nbsp; &amp;nbsp; &amp;nbsp; &amp;nbsp; &amp;nbsp; &amp;nbsp; &amp;nbsp; &amp;nbsp; &amp;nbsp; &amp;nbsp; &amp;nbsp; &amp;nbsp; &amp;nbsp; &amp;nbsp;serial" style="shape=partialRectangle;connectable=0;fillColor=none;top=0;left=0;bottom=0;right=0;align=left;spacingLeft=6;fontStyle=1;overflow=hidden;whiteSpace=wrap;html=1;rounded=0;fontFamily=Courier New;fontSize=16;" parent="C7LOxqXwbHzqQDy3l2-N-94" vertex="1">
          <mxGeometry x="31.950042724609375" width="471.0499572753906" height="30" as="geometry">
            <mxRectangle width="471.0499572753906" height="30" as="alternateBounds" />
          </mxGeometry>
        </mxCell>
        <mxCell id="C7LOxqXwbHzqQDy3l2-N-97" value="" style="shape=tableRow;horizontal=0;startSize=0;swimlaneHead=0;swimlaneBody=0;fillColor=none;collapsible=0;dropTarget=0;points=[[0,0.5],[1,0.5]];portConstraint=eastwest;top=0;left=0;right=0;bottom=0;rounded=0;fontFamily=Courier New;fontSize=16;" parent="C7LOxqXwbHzqQDy3l2-N-93" vertex="1">
          <mxGeometry y="60" width="503" height="30" as="geometry" />
        </mxCell>
        <mxCell id="C7LOxqXwbHzqQDy3l2-N-98" value="" style="shape=partialRectangle;connectable=0;fillColor=none;top=0;left=0;bottom=0;right=0;editable=1;overflow=hidden;whiteSpace=wrap;html=1;rounded=0;fontFamily=Courier New;fontSize=16;" parent="C7LOxqXwbHzqQDy3l2-N-97" vertex="1">
          <mxGeometry width="31.950042724609375" height="30" as="geometry">
            <mxRectangle width="31.950042724609375" height="30" as="alternateBounds" />
          </mxGeometry>
        </mxCell>
        <mxCell id="C7LOxqXwbHzqQDy3l2-N-99" value="experience_code&amp;nbsp; &amp;nbsp; &amp;nbsp; &amp;nbsp; &amp;nbsp; &amp;nbsp; &amp;nbsp; &amp;nbsp; &amp;nbsp; &amp;nbsp; &amp;nbsp; &amp;nbsp; &amp;nbsp;&lt;b&gt;varchar&lt;/b&gt;" style="shape=partialRectangle;connectable=0;fillColor=none;top=0;left=0;bottom=0;right=0;align=left;spacingLeft=6;overflow=hidden;whiteSpace=wrap;html=1;rounded=0;fontFamily=Courier New;fontSize=16;" parent="C7LOxqXwbHzqQDy3l2-N-97" vertex="1">
          <mxGeometry x="31.950042724609375" width="471.0499572753906" height="30" as="geometry">
            <mxRectangle width="471.0499572753906" height="30" as="alternateBounds" />
          </mxGeometry>
        </mxCell>
        <mxCell id="C7LOxqXwbHzqQDy3l2-N-100" value="" style="shape=tableRow;horizontal=0;startSize=0;swimlaneHead=0;swimlaneBody=0;fillColor=none;collapsible=0;dropTarget=0;points=[[0,0.5],[1,0.5]];portConstraint=eastwest;top=0;left=0;right=0;bottom=0;rounded=0;fontFamily=Courier New;fontSize=16;" parent="C7LOxqXwbHzqQDy3l2-N-93" vertex="1">
          <mxGeometry y="90" width="503" height="30" as="geometry" />
        </mxCell>
        <mxCell id="C7LOxqXwbHzqQDy3l2-N-101" value="" style="shape=partialRectangle;connectable=0;fillColor=none;top=0;left=0;bottom=0;right=0;editable=1;overflow=hidden;whiteSpace=wrap;html=1;rounded=0;fontFamily=Courier New;fontSize=16;" parent="C7LOxqXwbHzqQDy3l2-N-100" vertex="1">
          <mxGeometry width="31.950042724609375" height="30" as="geometry">
            <mxRectangle width="31.950042724609375" height="30" as="alternateBounds" />
          </mxGeometry>
        </mxCell>
        <mxCell id="C7LOxqXwbHzqQDy3l2-N-102" value="experience_l&lt;span style=&quot;background-color: transparent; color: light-dark(rgb(0, 0, 0), rgb(255, 255, 255));&quot;&gt;ibelle&amp;nbsp; &amp;nbsp; &amp;nbsp; &amp;nbsp; &amp;nbsp; &amp;nbsp; &amp;nbsp; &amp;nbsp; &amp;nbsp; &amp;nbsp; &amp;nbsp; &lt;b&gt;varchar&lt;/b&gt;&lt;/span&gt;" style="shape=partialRectangle;connectable=0;fillColor=none;top=0;left=0;bottom=0;right=0;align=left;spacingLeft=6;overflow=hidden;whiteSpace=wrap;html=1;rounded=0;fontFamily=Courier New;fontSize=16;" parent="C7LOxqXwbHzqQDy3l2-N-100" vertex="1">
          <mxGeometry x="31.950042724609375" width="471.0499572753906" height="30" as="geometry">
            <mxRectangle width="471.0499572753906" height="30" as="alternateBounds" />
          </mxGeometry>
        </mxCell>
        <mxCell id="C7LOxqXwbHzqQDy3l2-N-227" value="" style="shape=tableRow;horizontal=0;startSize=0;swimlaneHead=0;swimlaneBody=0;fillColor=none;collapsible=0;dropTarget=0;points=[[0,0.5],[1,0.5]];portConstraint=eastwest;top=0;left=0;right=0;bottom=0;rounded=0;fontFamily=Courier New;fontSize=16;" parent="C7LOxqXwbHzqQDy3l2-N-93" vertex="1">
          <mxGeometry y="120" width="503" height="30" as="geometry" />
        </mxCell>
        <mxCell id="C7LOxqXwbHzqQDy3l2-N-228" value="" style="shape=partialRectangle;connectable=0;fillColor=none;top=0;left=0;bottom=0;right=0;editable=1;overflow=hidden;whiteSpace=wrap;html=1;rounded=0;fontFamily=Courier New;fontSize=16;" parent="C7LOxqXwbHzqQDy3l2-N-227" vertex="1">
          <mxGeometry width="31.950042724609375" height="30" as="geometry">
            <mxRectangle width="31.950042724609375" height="30" as="alternateBounds" />
          </mxGeometry>
        </mxCell>
        <mxCell id="C7LOxqXwbHzqQDy3l2-N-229" value="&lt;span&gt;competence_code&amp;nbsp; &amp;nbsp; &amp;nbsp; &amp;nbsp; &amp;nbsp; &amp;nbsp; &amp;nbsp; &amp;nbsp; &amp;nbsp; &amp;nbsp; &amp;nbsp; &amp;nbsp; &amp;nbsp;&lt;/span&gt;&lt;b&gt;integer&lt;/b&gt;" style="shape=partialRectangle;connectable=0;fillColor=none;top=0;left=0;bottom=0;right=0;align=left;spacingLeft=6;overflow=hidden;whiteSpace=wrap;html=1;rounded=0;fontStyle=0;fontFamily=Courier New;fontSize=16;" parent="C7LOxqXwbHzqQDy3l2-N-227" vertex="1">
          <mxGeometry x="31.950042724609375" width="471.0499572753906" height="30" as="geometry">
            <mxRectangle width="471.0499572753906" height="30" as="alternateBounds" />
          </mxGeometry>
        </mxCell>
        <mxCell id="C7LOxqXwbHzqQDy3l2-N-230" value="" style="shape=tableRow;horizontal=0;startSize=0;swimlaneHead=0;swimlaneBody=0;fillColor=none;collapsible=0;dropTarget=0;points=[[0,0.5],[1,0.5]];portConstraint=eastwest;top=0;left=0;right=0;bottom=0;rounded=0;fontFamily=Courier New;fontSize=16;" parent="C7LOxqXwbHzqQDy3l2-N-93" vertex="1">
          <mxGeometry y="150" width="503" height="30" as="geometry" />
        </mxCell>
        <mxCell id="C7LOxqXwbHzqQDy3l2-N-231" value="" style="shape=partialRectangle;connectable=0;fillColor=none;top=0;left=0;bottom=0;right=0;editable=1;overflow=hidden;whiteSpace=wrap;html=1;rounded=0;fontFamily=Courier New;fontSize=16;" parent="C7LOxqXwbHzqQDy3l2-N-230" vertex="1">
          <mxGeometry width="31.950042724609375" height="30" as="geometry">
            <mxRectangle width="31.950042724609375" height="30" as="alternateBounds" />
          </mxGeometry>
        </mxCell>
        <mxCell id="C7LOxqXwbHzqQDy3l2-N-232" value="competence_libelle&amp;nbsp; &amp;nbsp; &amp;nbsp; &amp;nbsp; &amp;nbsp; &amp;nbsp; &amp;nbsp; &amp;nbsp; &amp;nbsp; &amp;nbsp; &amp;nbsp;&amp;nbsp;&lt;b&gt;varchar&lt;/b&gt;" style="shape=partialRectangle;connectable=0;fillColor=none;top=0;left=0;bottom=0;right=0;align=left;spacingLeft=6;overflow=hidden;whiteSpace=wrap;html=1;rounded=0;fontFamily=Courier New;fontSize=16;" parent="C7LOxqXwbHzqQDy3l2-N-230" vertex="1">
          <mxGeometry x="31.950042724609375" width="471.0499572753906" height="30" as="geometry">
            <mxRectangle width="471.0499572753906" height="30" as="alternateBounds" />
          </mxGeometry>
        </mxCell>
        <mxCell id="C7LOxqXwbHzqQDy3l2-N-233" value="" style="shape=tableRow;horizontal=0;startSize=0;swimlaneHead=0;swimlaneBody=0;fillColor=none;collapsible=0;dropTarget=0;points=[[0,0.5],[1,0.5]];portConstraint=eastwest;top=0;left=0;right=0;bottom=0;rounded=0;fontFamily=Courier New;fontSize=16;" parent="C7LOxqXwbHzqQDy3l2-N-93" vertex="1">
          <mxGeometry y="180" width="503" height="30" as="geometry" />
        </mxCell>
        <mxCell id="C7LOxqXwbHzqQDy3l2-N-234" value="" style="shape=partialRectangle;connectable=0;fillColor=none;top=0;left=0;bottom=0;right=0;editable=1;overflow=hidden;whiteSpace=wrap;html=1;rounded=0;fontFamily=Courier New;fontSize=16;" parent="C7LOxqXwbHzqQDy3l2-N-233" vertex="1">
          <mxGeometry width="31.950042724609375" height="30" as="geometry">
            <mxRectangle width="31.950042724609375" height="30" as="alternateBounds" />
          </mxGeometry>
        </mxCell>
        <mxCell id="C7LOxqXwbHzqQDy3l2-N-235" value="competence_exigence&amp;nbsp; &amp;nbsp; &amp;nbsp; &amp;nbsp; &amp;nbsp; &amp;nbsp; &amp;nbsp; &amp;nbsp; &amp;nbsp; &amp;nbsp;&amp;nbsp;&amp;nbsp;&lt;b&gt;varchar&lt;/b&gt;" style="shape=partialRectangle;connectable=0;fillColor=none;top=0;left=0;bottom=0;right=0;align=left;spacingLeft=6;overflow=hidden;whiteSpace=wrap;html=1;rounded=0;fontFamily=Courier New;fontSize=16;" parent="C7LOxqXwbHzqQDy3l2-N-233" vertex="1">
          <mxGeometry x="31.950042724609375" width="471.0499572753906" height="30" as="geometry">
            <mxRectangle width="471.0499572753906" height="30" as="alternateBounds" />
          </mxGeometry>
        </mxCell>
        <mxCell id="C7LOxqXwbHzqQDy3l2-N-103" value="" style="shape=tableRow;horizontal=0;startSize=0;swimlaneHead=0;swimlaneBody=0;fillColor=none;collapsible=0;dropTarget=0;points=[[0,0.5],[1,0.5]];portConstraint=eastwest;top=0;left=0;right=0;bottom=0;rounded=0;fontFamily=Courier New;fontSize=16;" parent="C7LOxqXwbHzqQDy3l2-N-93" vertex="1">
          <mxGeometry y="210" width="503" height="30" as="geometry" />
        </mxCell>
        <mxCell id="C7LOxqXwbHzqQDy3l2-N-104" value="" style="shape=partialRectangle;connectable=0;fillColor=none;top=0;left=0;bottom=0;right=0;editable=1;overflow=hidden;whiteSpace=wrap;html=1;rounded=0;fontFamily=Courier New;fontSize=16;" parent="C7LOxqXwbHzqQDy3l2-N-103" vertex="1">
          <mxGeometry width="31.950042724609375" height="30" as="geometry">
            <mxRectangle width="31.950042724609375" height="30" as="alternateBounds" />
          </mxGeometry>
        </mxCell>
        <mxCell id="C7LOxqXwbHzqQDy3l2-N-105" value="formation_niveau_l&lt;span style=&quot;background-color: transparent; color: light-dark(rgb(0, 0, 0), rgb(255, 255, 255));&quot;&gt;ibelle&amp;nbsp; &amp;nbsp; &amp;nbsp; &amp;nbsp; &amp;nbsp; &amp;nbsp;&amp;nbsp;&lt;/span&gt;&amp;nbsp; &amp;nbsp; &lt;b&gt;varchar&lt;/b&gt;" style="shape=partialRectangle;connectable=0;fillColor=none;top=0;left=0;bottom=0;right=0;align=left;spacingLeft=6;overflow=hidden;whiteSpace=wrap;html=1;rounded=0;fontFamily=Courier New;fontSize=16;" parent="C7LOxqXwbHzqQDy3l2-N-103" vertex="1">
          <mxGeometry x="31.950042724609375" width="471.0499572753906" height="30" as="geometry">
            <mxRectangle width="471.0499572753906" height="30" as="alternateBounds" />
          </mxGeometry>
        </mxCell>
        <mxCell id="C7LOxqXwbHzqQDy3l2-N-109" value="" style="shape=tableRow;horizontal=0;startSize=0;swimlaneHead=0;swimlaneBody=0;fillColor=none;collapsible=0;dropTarget=0;points=[[0,0.5],[1,0.5]];portConstraint=eastwest;top=0;left=0;right=0;bottom=0;rounded=0;fontFamily=Courier New;fontSize=16;" parent="C7LOxqXwbHzqQDy3l2-N-93" vertex="1">
          <mxGeometry y="240" width="503" height="30" as="geometry" />
        </mxCell>
        <mxCell id="C7LOxqXwbHzqQDy3l2-N-110" value="" style="shape=partialRectangle;connectable=0;fillColor=none;top=0;left=0;bottom=0;right=0;editable=1;overflow=hidden;whiteSpace=wrap;html=1;rounded=0;fontFamily=Courier New;fontSize=16;" parent="C7LOxqXwbHzqQDy3l2-N-109" vertex="1">
          <mxGeometry width="31.950042724609375" height="30" as="geometry">
            <mxRectangle width="31.950042724609375" height="30" as="alternateBounds" />
          </mxGeometry>
        </mxCell>
        <mxCell id="C7LOxqXwbHzqQDy3l2-N-111" value="formation_code&amp;nbsp; &amp;nbsp; &amp;nbsp; &amp;nbsp; &amp;nbsp; &amp;nbsp; &amp;nbsp; &amp;nbsp; &amp;nbsp; &amp;nbsp; &amp;nbsp; &amp;nbsp; &amp;nbsp;&amp;nbsp;&lt;b&gt;varchar&lt;/b&gt;" style="shape=partialRectangle;connectable=0;fillColor=none;top=0;left=0;bottom=0;right=0;align=left;spacingLeft=6;overflow=hidden;whiteSpace=wrap;html=1;rounded=0;fontFamily=Courier New;fontSize=16;" parent="C7LOxqXwbHzqQDy3l2-N-109" vertex="1">
          <mxGeometry x="31.950042724609375" width="471.0499572753906" height="30" as="geometry">
            <mxRectangle width="471.0499572753906" height="30" as="alternateBounds" />
          </mxGeometry>
        </mxCell>
        <mxCell id="C7LOxqXwbHzqQDy3l2-N-112" value="" style="shape=tableRow;horizontal=0;startSize=0;swimlaneHead=0;swimlaneBody=0;fillColor=none;collapsible=0;dropTarget=0;points=[[0,0.5],[1,0.5]];portConstraint=eastwest;top=0;left=0;right=0;bottom=0;rounded=0;fontFamily=Courier New;fontSize=16;" parent="C7LOxqXwbHzqQDy3l2-N-93" vertex="1">
          <mxGeometry y="270" width="503" height="30" as="geometry" />
        </mxCell>
        <mxCell id="C7LOxqXwbHzqQDy3l2-N-113" value="" style="shape=partialRectangle;connectable=0;fillColor=none;top=0;left=0;bottom=0;right=0;editable=1;overflow=hidden;whiteSpace=wrap;html=1;rounded=0;fontFamily=Courier New;fontSize=16;" parent="C7LOxqXwbHzqQDy3l2-N-112" vertex="1">
          <mxGeometry width="31.950042724609375" height="30" as="geometry">
            <mxRectangle width="31.950042724609375" height="30" as="alternateBounds" />
          </mxGeometry>
        </mxCell>
        <mxCell id="C7LOxqXwbHzqQDy3l2-N-114" value="langues&amp;nbsp; &amp;nbsp; &amp;nbsp; &amp;nbsp; &amp;nbsp; &amp;nbsp; &amp;nbsp; &amp;nbsp; &amp;nbsp; &amp;nbsp; &amp;nbsp; &amp;nbsp; &amp;nbsp; &amp;nbsp; &amp;nbsp; &amp;nbsp;&amp;nbsp; &lt;b&gt;varchar&lt;/b&gt;" style="shape=partialRectangle;connectable=0;fillColor=none;top=0;left=0;bottom=0;right=0;align=left;spacingLeft=6;overflow=hidden;whiteSpace=wrap;html=1;rounded=0;fontFamily=Courier New;fontSize=16;" parent="C7LOxqXwbHzqQDy3l2-N-112" vertex="1">
          <mxGeometry x="31.950042724609375" width="471.0499572753906" height="30" as="geometry">
            <mxRectangle width="471.0499572753906" height="30" as="alternateBounds" />
          </mxGeometry>
        </mxCell>
        <mxCell id="C7LOxqXwbHzqQDy3l2-N-190" value="" style="shape=tableRow;horizontal=0;startSize=0;swimlaneHead=0;swimlaneBody=0;fillColor=none;collapsible=0;dropTarget=0;points=[[0,0.5],[1,0.5]];portConstraint=eastwest;top=0;left=0;right=0;bottom=0;rounded=0;fontFamily=Courier New;fontSize=16;" parent="C7LOxqXwbHzqQDy3l2-N-93" vertex="1">
          <mxGeometry y="300" width="503" height="30" as="geometry" />
        </mxCell>
        <mxCell id="C7LOxqXwbHzqQDy3l2-N-191" value="" style="shape=partialRectangle;connectable=0;fillColor=none;top=0;left=0;bottom=0;right=0;editable=1;overflow=hidden;whiteSpace=wrap;html=1;rounded=0;fontFamily=Courier New;fontSize=16;" parent="C7LOxqXwbHzqQDy3l2-N-190" vertex="1">
          <mxGeometry width="31.950042724609375" height="30" as="geometry">
            <mxRectangle width="31.950042724609375" height="30" as="alternateBounds" />
          </mxGeometry>
        </mxCell>
        <mxCell id="C7LOxqXwbHzqQDy3l2-N-192" value="qualites_professionnelles_libelle&amp;nbsp; &amp;nbsp; &amp;nbsp; &amp;nbsp;&lt;b&gt;varchar&lt;/b&gt;" style="shape=partialRectangle;connectable=0;fillColor=none;top=0;left=0;bottom=0;right=0;align=left;spacingLeft=6;overflow=hidden;whiteSpace=wrap;html=1;rounded=0;fontFamily=Courier New;fontSize=16;" parent="C7LOxqXwbHzqQDy3l2-N-190" vertex="1">
          <mxGeometry x="31.950042724609375" width="471.0499572753906" height="30" as="geometry">
            <mxRectangle width="471.0499572753906" height="30" as="alternateBounds" />
          </mxGeometry>
        </mxCell>
        <mxCell id="C7LOxqXwbHzqQDy3l2-N-193" value="" style="shape=tableRow;horizontal=0;startSize=0;swimlaneHead=0;swimlaneBody=0;fillColor=none;collapsible=0;dropTarget=0;points=[[0,0.5],[1,0.5]];portConstraint=eastwest;top=0;left=0;right=0;bottom=0;rounded=0;fontFamily=Courier New;fontSize=16;" parent="C7LOxqXwbHzqQDy3l2-N-93" vertex="1">
          <mxGeometry y="330" width="503" height="30" as="geometry" />
        </mxCell>
        <mxCell id="C7LOxqXwbHzqQDy3l2-N-194" value="" style="shape=partialRectangle;connectable=0;fillColor=none;top=0;left=0;bottom=0;right=0;editable=1;overflow=hidden;whiteSpace=wrap;html=1;rounded=0;fontFamily=Courier New;fontSize=16;" parent="C7LOxqXwbHzqQDy3l2-N-193" vertex="1">
          <mxGeometry width="31.950042724609375" height="30" as="geometry">
            <mxRectangle width="31.950042724609375" height="30" as="alternateBounds" />
          </mxGeometry>
        </mxCell>
        <mxCell id="C7LOxqXwbHzqQDy3l2-N-195" value="qualites_professionnelles_description&amp;nbsp;&amp;nbsp;&amp;nbsp;&lt;b&gt;varchar&lt;/b&gt;" style="shape=partialRectangle;connectable=0;fillColor=none;top=0;left=0;bottom=0;right=0;align=left;spacingLeft=6;overflow=hidden;whiteSpace=wrap;html=1;rounded=0;fontFamily=Courier New;fontSize=16;" parent="C7LOxqXwbHzqQDy3l2-N-193" vertex="1">
          <mxGeometry x="31.950042724609375" width="471.0499572753906" height="30" as="geometry">
            <mxRectangle width="471.0499572753906" height="30" as="alternateBounds" />
          </mxGeometry>
        </mxCell>
        <mxCell id="C7LOxqXwbHzqQDy3l2-N-205" value="" style="shape=tableRow;horizontal=0;startSize=0;swimlaneHead=0;swimlaneBody=0;fillColor=none;collapsible=0;dropTarget=0;points=[[0,0.5],[1,0.5]];portConstraint=eastwest;top=0;left=0;right=0;bottom=0;rounded=0;fontFamily=Courier New;fontSize=16;" parent="C7LOxqXwbHzqQDy3l2-N-93" vertex="1">
          <mxGeometry y="360" width="503" height="32" as="geometry" />
        </mxCell>
        <mxCell id="C7LOxqXwbHzqQDy3l2-N-206" value="" style="shape=partialRectangle;connectable=0;fillColor=none;top=0;left=0;bottom=0;right=0;editable=1;overflow=hidden;whiteSpace=wrap;html=1;rounded=0;fontFamily=Courier New;fontSize=16;" parent="C7LOxqXwbHzqQDy3l2-N-205" vertex="1">
          <mxGeometry width="31.950042724609375" height="32" as="geometry">
            <mxRectangle width="31.950042724609375" height="32" as="alternateBounds" />
          </mxGeometry>
        </mxCell>
        <mxCell id="C7LOxqXwbHzqQDy3l2-N-207" value="permis_libelle&amp;nbsp; &amp;nbsp; &amp;nbsp; &amp;nbsp; &amp;nbsp; &amp;nbsp; &amp;nbsp; &amp;nbsp; &amp;nbsp; &amp;nbsp; &amp;nbsp; &amp;nbsp; &amp;nbsp; &lt;b&gt;varchar&lt;/b&gt;" style="shape=partialRectangle;connectable=0;fillColor=none;top=0;left=0;bottom=0;right=0;align=left;spacingLeft=6;overflow=hidden;whiteSpace=wrap;html=1;rounded=0;fontFamily=Courier New;fontSize=16;" parent="C7LOxqXwbHzqQDy3l2-N-205" vertex="1">
          <mxGeometry x="31.950042724609375" width="471.0499572753906" height="32" as="geometry">
            <mxRectangle width="471.0499572753906" height="32" as="alternateBounds" />
          </mxGeometry>
        </mxCell>
        <mxCell id="C7LOxqXwbHzqQDy3l2-N-344" value="" style="shape=tableRow;horizontal=0;startSize=0;swimlaneHead=0;swimlaneBody=0;fillColor=none;collapsible=0;dropTarget=0;points=[[0,0.5],[1,0.5]];portConstraint=eastwest;top=0;left=0;right=0;bottom=0;rounded=0;fontFamily=Courier New;fontSize=16;" parent="C7LOxqXwbHzqQDy3l2-N-93" vertex="1">
          <mxGeometry y="392" width="503" height="28" as="geometry" />
        </mxCell>
        <mxCell id="C7LOxqXwbHzqQDy3l2-N-345" value="" style="shape=partialRectangle;connectable=0;fillColor=none;top=0;left=0;bottom=0;right=0;editable=1;overflow=hidden;whiteSpace=wrap;html=1;rounded=0;fontFamily=Courier New;fontSize=16;" parent="C7LOxqXwbHzqQDy3l2-N-344" vertex="1">
          <mxGeometry width="31.950042724609375" height="28" as="geometry">
            <mxRectangle width="31.950042724609375" height="28" as="alternateBounds" />
          </mxGeometry>
        </mxCell>
        <mxCell id="C7LOxqXwbHzqQDy3l2-N-346" value="permis_code&amp;nbsp; &amp;nbsp; &amp;nbsp; &amp;nbsp; &amp;nbsp; &amp;nbsp; &amp;nbsp; &amp;nbsp; &amp;nbsp; &amp;nbsp; &amp;nbsp; &amp;nbsp; &amp;nbsp; &amp;nbsp; &amp;nbsp;&lt;b&gt;varchar&lt;/b&gt;" style="shape=partialRectangle;connectable=0;fillColor=none;top=0;left=0;bottom=0;right=0;align=left;spacingLeft=6;overflow=hidden;whiteSpace=wrap;html=1;rounded=0;fontFamily=Courier New;fontSize=16;" parent="C7LOxqXwbHzqQDy3l2-N-344" vertex="1">
          <mxGeometry x="31.950042724609375" width="471.0499572753906" height="28" as="geometry">
            <mxRectangle width="471.0499572753906" height="28" as="alternateBounds" />
          </mxGeometry>
        </mxCell>
        <mxCell id="C7LOxqXwbHzqQDy3l2-N-208" value="" style="shape=tableRow;horizontal=0;startSize=0;swimlaneHead=0;swimlaneBody=0;fillColor=none;collapsible=0;dropTarget=0;points=[[0,0.5],[1,0.5]];portConstraint=eastwest;top=0;left=0;right=0;bottom=0;rounded=0;fontFamily=Courier New;fontSize=16;" parent="C7LOxqXwbHzqQDy3l2-N-93" vertex="1">
          <mxGeometry y="420" width="503" height="30" as="geometry" />
        </mxCell>
        <mxCell id="C7LOxqXwbHzqQDy3l2-N-209" value="" style="shape=partialRectangle;connectable=0;fillColor=none;top=0;left=0;bottom=0;right=0;editable=1;overflow=hidden;whiteSpace=wrap;html=1;rounded=0;fontFamily=Courier New;fontSize=16;" parent="C7LOxqXwbHzqQDy3l2-N-208" vertex="1">
          <mxGeometry width="31.950042724609375" height="30" as="geometry">
            <mxRectangle width="31.950042724609375" height="30" as="alternateBounds" />
          </mxGeometry>
        </mxCell>
        <mxCell id="C7LOxqXwbHzqQDy3l2-N-210" value="experience_commentaire&amp;nbsp; &amp;nbsp; &amp;nbsp; &amp;nbsp; &amp;nbsp; &amp;nbsp; &amp;nbsp; &amp;nbsp; &amp;nbsp; &lt;b&gt;varchar&lt;/b&gt;" style="shape=partialRectangle;connectable=0;fillColor=none;top=0;left=0;bottom=0;right=0;align=left;spacingLeft=6;overflow=hidden;whiteSpace=wrap;html=1;rounded=0;fontFamily=Courier New;fontSize=16;" parent="C7LOxqXwbHzqQDy3l2-N-208" vertex="1">
          <mxGeometry x="31.950042724609375" width="471.0499572753906" height="30" as="geometry">
            <mxRectangle width="471.0499572753906" height="30" as="alternateBounds" />
          </mxGeometry>
        </mxCell>
        <mxCell id="C7LOxqXwbHzqQDy3l2-N-106" value="" style="shape=tableRow;horizontal=0;startSize=0;swimlaneHead=0;swimlaneBody=0;fillColor=none;collapsible=0;dropTarget=0;points=[[0,0.5],[1,0.5]];portConstraint=eastwest;top=0;left=0;right=0;bottom=0;rounded=0;fontFamily=Courier New;fontSize=16;" parent="C7LOxqXwbHzqQDy3l2-N-93" vertex="1">
          <mxGeometry y="450" width="503" height="30" as="geometry" />
        </mxCell>
        <mxCell id="C7LOxqXwbHzqQDy3l2-N-107" value="FK" style="shape=partialRectangle;connectable=0;fillColor=none;top=0;left=0;bottom=0;right=0;editable=1;overflow=hidden;whiteSpace=wrap;html=1;rounded=0;fontFamily=Courier New;fontSize=16;" parent="C7LOxqXwbHzqQDy3l2-N-106" vertex="1">
          <mxGeometry width="31.950042724609375" height="30" as="geometry">
            <mxRectangle width="31.950042724609375" height="30" as="alternateBounds" />
          </mxGeometry>
        </mxCell>
        <mxCell id="C7LOxqXwbHzqQDy3l2-N-108" value="id_offre" style="shape=partialRectangle;connectable=0;fillColor=none;top=0;left=0;bottom=0;right=0;align=left;spacingLeft=6;overflow=hidden;whiteSpace=wrap;html=1;rounded=0;fontFamily=Courier New;fontSize=16;" parent="C7LOxqXwbHzqQDy3l2-N-106" vertex="1">
          <mxGeometry x="31.950042724609375" width="471.0499572753906" height="30" as="geometry">
            <mxRectangle width="471.0499572753906" height="30" as="alternateBounds" />
          </mxGeometry>
        </mxCell>
        <mxCell id="C7LOxqXwbHzqQDy3l2-N-159" value="&lt;font style=&quot;font-size: 24px;&quot;&gt;Secteurs&lt;/font&gt;" style="shape=table;startSize=31;container=1;collapsible=1;childLayout=tableLayout;fixedRows=1;rowLines=0;fontStyle=1;align=center;resizeLast=1;html=1;fillColor=#ffe6cc;strokeColor=#d79b00;rounded=0;swimlaneLine=1;shadow=0;fontFamily=Courier New;fontSize=16;" parent="1" vertex="1">
          <mxGeometry x="-2145" y="759" width="306" height="92" as="geometry" />
        </mxCell>
        <mxCell id="C7LOxqXwbHzqQDy3l2-N-160" value="" style="shape=tableRow;horizontal=0;startSize=0;swimlaneHead=0;swimlaneBody=0;fillColor=none;collapsible=0;dropTarget=0;points=[[0,0.5],[1,0.5]];portConstraint=eastwest;top=0;left=0;right=0;bottom=1;rounded=0;fontStyle=0;fontFamily=Courier New;fontSize=16;" parent="C7LOxqXwbHzqQDy3l2-N-159" vertex="1">
          <mxGeometry y="31" width="306" height="30" as="geometry" />
        </mxCell>
        <mxCell id="C7LOxqXwbHzqQDy3l2-N-161" value="PK" style="shape=partialRectangle;connectable=0;fillColor=none;top=0;left=0;bottom=0;right=0;fontStyle=1;overflow=hidden;whiteSpace=wrap;html=1;rounded=0;fontFamily=Courier New;fontSize=16;" parent="C7LOxqXwbHzqQDy3l2-N-160" vertex="1">
          <mxGeometry width="30" height="30" as="geometry">
            <mxRectangle width="30" height="30" as="alternateBounds" />
          </mxGeometry>
        </mxCell>
        <mxCell id="C7LOxqXwbHzqQDy3l2-N-162" value="&lt;u&gt;code_naf&lt;/u&gt;&amp;nbsp; &amp;nbsp; &amp;nbsp; &amp;nbsp; &amp;nbsp; &amp;nbsp;varchar" style="shape=partialRectangle;connectable=0;fillColor=none;top=0;left=0;bottom=0;right=0;align=left;spacingLeft=6;fontStyle=1;overflow=hidden;whiteSpace=wrap;html=1;rounded=0;fontFamily=Courier New;fontSize=16;" parent="C7LOxqXwbHzqQDy3l2-N-160" vertex="1">
          <mxGeometry x="30" width="276" height="30" as="geometry">
            <mxRectangle width="276" height="30" as="alternateBounds" />
          </mxGeometry>
        </mxCell>
        <mxCell id="C7LOxqXwbHzqQDy3l2-N-166" value="" style="shape=tableRow;horizontal=0;startSize=0;swimlaneHead=0;swimlaneBody=0;fillColor=none;collapsible=0;dropTarget=0;points=[[0,0.5],[1,0.5]];portConstraint=eastwest;top=0;left=0;right=0;bottom=0;rounded=0;fontFamily=Courier New;fontSize=16;" parent="C7LOxqXwbHzqQDy3l2-N-159" vertex="1">
          <mxGeometry y="61" width="306" height="30" as="geometry" />
        </mxCell>
        <mxCell id="C7LOxqXwbHzqQDy3l2-N-167" value="" style="shape=partialRectangle;connectable=0;fillColor=none;top=0;left=0;bottom=0;right=0;editable=1;overflow=hidden;whiteSpace=wrap;html=1;rounded=0;fontFamily=Courier New;fontSize=16;" parent="C7LOxqXwbHzqQDy3l2-N-166" vertex="1">
          <mxGeometry width="30" height="30" as="geometry">
            <mxRectangle width="30" height="30" as="alternateBounds" />
          </mxGeometry>
        </mxCell>
        <mxCell id="C7LOxqXwbHzqQDy3l2-N-168" value="secteur_activite&amp;nbsp; &amp;nbsp;&lt;span style=&quot;font-weight: 700;&quot;&gt;varchar&lt;/span&gt;" style="shape=partialRectangle;connectable=0;fillColor=none;top=0;left=0;bottom=0;right=0;align=left;spacingLeft=6;overflow=hidden;whiteSpace=wrap;html=1;rounded=0;fontFamily=Courier New;fontSize=16;" parent="C7LOxqXwbHzqQDy3l2-N-166" vertex="1">
          <mxGeometry x="30" width="276" height="30" as="geometry">
            <mxRectangle width="276" height="30" as="alternateBounds" />
          </mxGeometry>
        </mxCell>
        <mxCell id="C7LOxqXwbHzqQDy3l2-N-251" value="Offres_Secteurs" style="shape=table;startSize=30;container=1;collapsible=1;childLayout=tableLayout;fixedRows=1;rowLines=0;fontStyle=1;align=center;resizeLast=1;html=1;whiteSpace=wrap;fillColor=#76608a;strokeColor=#432D57;fontColor=#ffffff;fontFamily=Courier New;fontSize=16;" parent="1" vertex="1">
          <mxGeometry x="-2142" y="925" width="180" height="90" as="geometry" />
        </mxCell>
        <mxCell id="C7LOxqXwbHzqQDy3l2-N-252" value="" style="shape=tableRow;horizontal=0;startSize=0;swimlaneHead=0;swimlaneBody=0;fillColor=none;collapsible=0;dropTarget=0;points=[[0,0.5],[1,0.5]];portConstraint=eastwest;top=0;left=0;right=0;bottom=0;html=1;fontFamily=Courier New;fontSize=16;" parent="C7LOxqXwbHzqQDy3l2-N-251" vertex="1">
          <mxGeometry y="30" width="180" height="30" as="geometry" />
        </mxCell>
        <mxCell id="C7LOxqXwbHzqQDy3l2-N-253" value="PK,FK1" style="shape=partialRectangle;connectable=0;fillColor=none;top=0;left=0;bottom=0;right=0;fontStyle=1;overflow=hidden;html=1;whiteSpace=wrap;fontFamily=Courier New;fontSize=16;" parent="C7LOxqXwbHzqQDy3l2-N-252" vertex="1">
          <mxGeometry width="60" height="30" as="geometry">
            <mxRectangle width="60" height="30" as="alternateBounds" />
          </mxGeometry>
        </mxCell>
        <mxCell id="C7LOxqXwbHzqQDy3l2-N-254" value="id_offre" style="shape=partialRectangle;connectable=0;fillColor=none;top=0;left=0;bottom=0;right=0;align=left;spacingLeft=6;fontStyle=5;overflow=hidden;html=1;whiteSpace=wrap;fontFamily=Courier New;fontSize=16;" parent="C7LOxqXwbHzqQDy3l2-N-252" vertex="1">
          <mxGeometry x="60" width="120" height="30" as="geometry">
            <mxRectangle width="120" height="30" as="alternateBounds" />
          </mxGeometry>
        </mxCell>
        <mxCell id="C7LOxqXwbHzqQDy3l2-N-255" value="" style="shape=tableRow;horizontal=0;startSize=0;swimlaneHead=0;swimlaneBody=0;fillColor=none;collapsible=0;dropTarget=0;points=[[0,0.5],[1,0.5]];portConstraint=eastwest;top=0;left=0;right=0;bottom=1;html=1;fontFamily=Courier New;fontSize=16;" parent="C7LOxqXwbHzqQDy3l2-N-251" vertex="1">
          <mxGeometry y="60" width="180" height="30" as="geometry" />
        </mxCell>
        <mxCell id="C7LOxqXwbHzqQDy3l2-N-256" value="PK,FK2" style="shape=partialRectangle;connectable=0;fillColor=none;top=0;left=0;bottom=0;right=0;fontStyle=1;overflow=hidden;html=1;whiteSpace=wrap;fontFamily=Courier New;fontSize=16;" parent="C7LOxqXwbHzqQDy3l2-N-255" vertex="1">
          <mxGeometry width="60" height="30" as="geometry">
            <mxRectangle width="60" height="30" as="alternateBounds" />
          </mxGeometry>
        </mxCell>
        <mxCell id="C7LOxqXwbHzqQDy3l2-N-257" value="code_naf" style="shape=partialRectangle;connectable=0;fillColor=none;top=0;left=0;bottom=0;right=0;align=left;spacingLeft=6;fontStyle=5;overflow=hidden;html=1;whiteSpace=wrap;fontFamily=Courier New;fontSize=16;" parent="C7LOxqXwbHzqQDy3l2-N-255" vertex="1">
          <mxGeometry x="60" width="120" height="30" as="geometry">
            <mxRectangle width="120" height="30" as="alternateBounds" />
          </mxGeometry>
        </mxCell>
        <mxCell id="C7LOxqXwbHzqQDy3l2-N-258" style="edgeStyle=orthogonalEdgeStyle;rounded=0;orthogonalLoop=1;jettySize=auto;html=1;exitX=0;exitY=0.5;exitDx=0;exitDy=0;entryX=1;entryY=0.5;entryDx=0;entryDy=0;endArrow=none;endFill=0;curved=1;fontFamily=Courier New;fontSize=16;" parent="1" source="-QC0LfeOqHy5VNt_hiCN-2" target="C7LOxqXwbHzqQDy3l2-N-252" edge="1">
          <mxGeometry relative="1" as="geometry">
            <mxPoint x="-1612" y="1370" as="sourcePoint" />
            <mxPoint x="-1458" y="1188" as="targetPoint" />
          </mxGeometry>
        </mxCell>
        <mxCell id="C7LOxqXwbHzqQDy3l2-N-261" style="edgeStyle=orthogonalEdgeStyle;rounded=0;orthogonalLoop=1;jettySize=auto;html=1;endArrow=none;endFill=0;curved=1;entryX=1;entryY=0.5;entryDx=0;entryDy=0;exitX=1;exitY=0.5;exitDx=0;exitDy=0;fontFamily=Courier New;fontSize=16;" parent="1" source="-QC0LfeOqHy5VNt_hiCN-39" target="C7LOxqXwbHzqQDy3l2-N-43" edge="1">
          <mxGeometry relative="1" as="geometry">
            <mxPoint x="-1157" y="997" as="sourcePoint" />
            <mxPoint x="-998" y="951" as="targetPoint" />
            <Array as="points">
              <mxPoint x="-1075" y="996" />
              <mxPoint x="-1075" y="804" />
            </Array>
          </mxGeometry>
        </mxCell>
        <mxCell id="C7LOxqXwbHzqQDy3l2-N-262" style="edgeStyle=orthogonalEdgeStyle;rounded=0;orthogonalLoop=1;jettySize=auto;html=1;endArrow=none;endFill=0;curved=1;exitX=0;exitY=0.5;exitDx=0;exitDy=0;entryX=0;entryY=0.5;entryDx=0;entryDy=0;fontFamily=Courier New;fontSize=16;" parent="1" source="C7LOxqXwbHzqQDy3l2-N-255" target="C7LOxqXwbHzqQDy3l2-N-160" edge="1">
          <mxGeometry relative="1" as="geometry">
            <mxPoint x="-2582" y="804" as="sourcePoint" />
            <mxPoint x="-2414" y="811" as="targetPoint" />
            <Array as="points">
              <mxPoint x="-2220" y="1000" />
              <mxPoint x="-2220" y="805" />
            </Array>
          </mxGeometry>
        </mxCell>
        <mxCell id="C7LOxqXwbHzqQDy3l2-N-265" style="edgeStyle=orthogonalEdgeStyle;rounded=0;orthogonalLoop=1;jettySize=auto;html=1;endArrow=none;endFill=0;curved=1;fontFamily=Courier New;fontSize=16;exitX=1;exitY=0.5;exitDx=0;exitDy=0;" parent="1" source="C7LOxqXwbHzqQDy3l2-N-84" target="-QC0LfeOqHy5VNt_hiCN-2" edge="1">
          <mxGeometry relative="1" as="geometry">
            <mxPoint x="-2171" y="1616" as="sourcePoint" />
            <mxPoint x="-2192" y="1136" as="targetPoint" />
            <Array as="points">
              <mxPoint x="-2420" y="1569" />
              <mxPoint x="-1887" y="1569" />
              <mxPoint x="-1887" y="1181" />
            </Array>
          </mxGeometry>
        </mxCell>
        <mxCell id="C7LOxqXwbHzqQDy3l2-N-267" style="edgeStyle=orthogonalEdgeStyle;rounded=0;orthogonalLoop=1;jettySize=auto;html=1;endArrow=none;endFill=0;strokeColor=default;curved=1;entryX=0;entryY=0.5;entryDx=0;entryDy=0;fontFamily=Courier New;fontSize=16;" parent="1" source="C7LOxqXwbHzqQDy3l2-N-39" target="-QC0LfeOqHy5VNt_hiCN-2" edge="1">
          <mxGeometry relative="1" as="geometry">
            <mxPoint x="-1912" y="1369" as="sourcePoint" />
            <mxPoint x="-1923" y="1436.9999999999998" as="targetPoint" />
          </mxGeometry>
        </mxCell>
        <mxCell id="C7LOxqXwbHzqQDy3l2-N-271" style="edgeStyle=orthogonalEdgeStyle;rounded=0;orthogonalLoop=1;jettySize=auto;html=1;exitX=1;exitY=0.5;exitDx=0;exitDy=0;entryX=0;entryY=0.5;entryDx=0;entryDy=0;endArrow=none;endFill=0;curved=1;fontFamily=Courier New;fontSize=16;" parent="1" source="-QC0LfeOqHy5VNt_hiCN-2" target="C7LOxqXwbHzqQDy3l2-N-106" edge="1">
          <mxGeometry relative="1" as="geometry">
            <mxPoint x="-1612" y="1370" as="sourcePoint" />
            <mxPoint x="-1432" y="1226" as="targetPoint" />
          </mxGeometry>
        </mxCell>
        <mxCell id="C7LOxqXwbHzqQDy3l2-N-284" value="&lt;font style=&quot;font-size: 24px;&quot;&gt;LieuxTravail&lt;/font&gt;" style="shape=table;startSize=30;container=1;collapsible=1;childLayout=tableLayout;fixedRows=1;rowLines=0;fontStyle=1;align=center;resizeLast=1;html=1;fillColor=#ffe6cc;strokeColor=#d79b00;rounded=0;fontFamily=Courier New;fontSize=16;" parent="1" vertex="1">
          <mxGeometry x="-2352" y="1235" width="369" height="240" as="geometry" />
        </mxCell>
        <mxCell id="C7LOxqXwbHzqQDy3l2-N-285" value="" style="shape=tableRow;horizontal=0;startSize=0;swimlaneHead=0;swimlaneBody=0;fillColor=none;collapsible=0;dropTarget=0;points=[[0,0.5],[1,0.5]];portConstraint=eastwest;top=0;left=0;right=0;bottom=1;rounded=0;fontFamily=Courier New;fontSize=16;" parent="C7LOxqXwbHzqQDy3l2-N-284" vertex="1">
          <mxGeometry y="30" width="369" height="30" as="geometry" />
        </mxCell>
        <mxCell id="C7LOxqXwbHzqQDy3l2-N-286" value="PK" style="shape=partialRectangle;connectable=0;fillColor=none;top=0;left=0;bottom=0;right=0;fontStyle=1;overflow=hidden;whiteSpace=wrap;html=1;rounded=0;fontFamily=Courier New;fontSize=16;" parent="C7LOxqXwbHzqQDy3l2-N-285" vertex="1">
          <mxGeometry width="31.950042724609375" height="30" as="geometry">
            <mxRectangle width="31.950042724609375" height="30" as="alternateBounds" />
          </mxGeometry>
        </mxCell>
        <mxCell id="C7LOxqXwbHzqQDy3l2-N-287" value="&lt;u&gt;id_lieu_travail&lt;/u&gt;&amp;nbsp; &amp;nbsp; &amp;nbsp; &amp;nbsp; &amp;nbsp; serial" style="shape=partialRectangle;connectable=0;fillColor=none;top=0;left=0;bottom=0;right=0;align=left;spacingLeft=6;fontStyle=1;overflow=hidden;whiteSpace=wrap;html=1;rounded=0;fontFamily=Courier New;fontSize=16;" parent="C7LOxqXwbHzqQDy3l2-N-285" vertex="1">
          <mxGeometry x="31.950042724609375" width="337.0499572753906" height="30" as="geometry">
            <mxRectangle width="337.0499572753906" height="30" as="alternateBounds" />
          </mxGeometry>
        </mxCell>
        <mxCell id="C7LOxqXwbHzqQDy3l2-N-291" value="" style="shape=tableRow;horizontal=0;startSize=0;swimlaneHead=0;swimlaneBody=0;fillColor=none;collapsible=0;dropTarget=0;points=[[0,0.5],[1,0.5]];portConstraint=eastwest;top=0;left=0;right=0;bottom=0;rounded=0;fontFamily=Courier New;fontSize=16;" parent="C7LOxqXwbHzqQDy3l2-N-284" vertex="1">
          <mxGeometry y="60" width="369" height="30" as="geometry" />
        </mxCell>
        <mxCell id="C7LOxqXwbHzqQDy3l2-N-292" value="" style="shape=partialRectangle;connectable=0;fillColor=none;top=0;left=0;bottom=0;right=0;editable=1;overflow=hidden;whiteSpace=wrap;html=1;rounded=0;fontFamily=Courier New;fontSize=16;" parent="C7LOxqXwbHzqQDy3l2-N-291" vertex="1">
          <mxGeometry width="31.950042724609375" height="30" as="geometry">
            <mxRectangle width="31.950042724609375" height="30" as="alternateBounds" />
          </mxGeometry>
        </mxCell>
        <mxCell id="C7LOxqXwbHzqQDy3l2-N-293" value="departement_ville_arr&amp;nbsp; &amp;nbsp;&amp;nbsp;&lt;b&gt;varchar&lt;/b&gt;" style="shape=partialRectangle;connectable=0;fillColor=none;top=0;left=0;bottom=0;right=0;align=left;spacingLeft=6;overflow=hidden;whiteSpace=wrap;html=1;rounded=0;fontFamily=Courier New;fontSize=16;" parent="C7LOxqXwbHzqQDy3l2-N-291" vertex="1">
          <mxGeometry x="31.950042724609375" width="337.0499572753906" height="30" as="geometry">
            <mxRectangle width="337.0499572753906" height="30" as="alternateBounds" />
          </mxGeometry>
        </mxCell>
        <mxCell id="C7LOxqXwbHzqQDy3l2-N-303" value="" style="shape=tableRow;horizontal=0;startSize=0;swimlaneHead=0;swimlaneBody=0;fillColor=none;collapsible=0;dropTarget=0;points=[[0,0.5],[1,0.5]];portConstraint=eastwest;top=0;left=0;right=0;bottom=0;rounded=0;fontFamily=Courier New;fontSize=16;" parent="C7LOxqXwbHzqQDy3l2-N-284" vertex="1">
          <mxGeometry y="90" width="369" height="30" as="geometry" />
        </mxCell>
        <mxCell id="C7LOxqXwbHzqQDy3l2-N-304" value="" style="shape=partialRectangle;connectable=0;fillColor=none;top=0;left=0;bottom=0;right=0;editable=1;overflow=hidden;whiteSpace=wrap;html=1;rounded=0;fontFamily=Courier New;fontSize=16;" parent="C7LOxqXwbHzqQDy3l2-N-303" vertex="1">
          <mxGeometry width="31.950042724609375" height="30" as="geometry">
            <mxRectangle width="31.950042724609375" height="30" as="alternateBounds" />
          </mxGeometry>
        </mxCell>
        <mxCell id="C7LOxqXwbHzqQDy3l2-N-305" value="code_p&lt;span style=&quot;background-color: transparent; color: light-dark(rgb(0, 0, 0), rgb(255, 255, 255));&quot;&gt;ostal&amp;nbsp; &amp;nbsp; &amp;nbsp; &amp;nbsp; &amp;nbsp; &amp;nbsp; &amp;nbsp; &lt;b&gt;integer&lt;/b&gt;&lt;/span&gt;" style="shape=partialRectangle;connectable=0;fillColor=none;top=0;left=0;bottom=0;right=0;align=left;spacingLeft=6;overflow=hidden;whiteSpace=wrap;html=1;rounded=0;fontFamily=Courier New;fontSize=16;" parent="C7LOxqXwbHzqQDy3l2-N-303" vertex="1">
          <mxGeometry x="31.950042724609375" width="337.0499572753906" height="30" as="geometry">
            <mxRectangle width="337.0499572753906" height="30" as="alternateBounds" />
          </mxGeometry>
        </mxCell>
        <mxCell id="C7LOxqXwbHzqQDy3l2-N-294" value="" style="shape=tableRow;horizontal=0;startSize=0;swimlaneHead=0;swimlaneBody=0;fillColor=none;collapsible=0;dropTarget=0;points=[[0,0.5],[1,0.5]];portConstraint=eastwest;top=0;left=0;right=0;bottom=0;rounded=0;fontFamily=Courier New;fontSize=16;" parent="C7LOxqXwbHzqQDy3l2-N-284" vertex="1">
          <mxGeometry y="120" width="369" height="30" as="geometry" />
        </mxCell>
        <mxCell id="C7LOxqXwbHzqQDy3l2-N-295" value="" style="shape=partialRectangle;connectable=0;fillColor=none;top=0;left=0;bottom=0;right=0;editable=1;overflow=hidden;whiteSpace=wrap;html=1;rounded=0;fontFamily=Courier New;fontSize=16;" parent="C7LOxqXwbHzqQDy3l2-N-294" vertex="1">
          <mxGeometry width="31.950042724609375" height="30" as="geometry">
            <mxRectangle width="31.950042724609375" height="30" as="alternateBounds" />
          </mxGeometry>
        </mxCell>
        <mxCell id="C7LOxqXwbHzqQDy3l2-N-296" value="code_commune&amp;nbsp; &amp;nbsp; &amp;nbsp; &amp;nbsp; &amp;nbsp; &amp;nbsp; &amp;nbsp;&lt;b&gt;integer&lt;/b&gt;" style="shape=partialRectangle;connectable=0;fillColor=none;top=0;left=0;bottom=0;right=0;align=left;spacingLeft=6;overflow=hidden;whiteSpace=wrap;html=1;rounded=0;fontFamily=Courier New;fontSize=16;" parent="C7LOxqXwbHzqQDy3l2-N-294" vertex="1">
          <mxGeometry x="31.950042724609375" width="337.0499572753906" height="30" as="geometry">
            <mxRectangle width="337.0499572753906" height="30" as="alternateBounds" />
          </mxGeometry>
        </mxCell>
        <mxCell id="C7LOxqXwbHzqQDy3l2-N-319" value="" style="shape=tableRow;horizontal=0;startSize=0;swimlaneHead=0;swimlaneBody=0;fillColor=none;collapsible=0;dropTarget=0;points=[[0,0.5],[1,0.5]];portConstraint=eastwest;top=0;left=0;right=0;bottom=0;rounded=0;fontFamily=Courier New;fontSize=16;" parent="C7LOxqXwbHzqQDy3l2-N-284" vertex="1">
          <mxGeometry y="150" width="369" height="30" as="geometry" />
        </mxCell>
        <mxCell id="C7LOxqXwbHzqQDy3l2-N-320" value="" style="shape=partialRectangle;connectable=0;fillColor=none;top=0;left=0;bottom=0;right=0;editable=1;overflow=hidden;whiteSpace=wrap;html=1;rounded=0;fontFamily=Courier New;fontSize=16;" parent="C7LOxqXwbHzqQDy3l2-N-319" vertex="1">
          <mxGeometry width="31.950042724609375" height="30" as="geometry">
            <mxRectangle width="31.950042724609375" height="30" as="alternateBounds" />
          </mxGeometry>
        </mxCell>
        <mxCell id="C7LOxqXwbHzqQDy3l2-N-321" value="latitude&amp;nbsp; &amp;nbsp; &amp;nbsp; &amp;nbsp; &amp;nbsp; &amp;nbsp; &amp;nbsp; &amp;nbsp; &amp;nbsp;&lt;b&gt;float&lt;/b&gt;" style="shape=partialRectangle;connectable=0;fillColor=none;top=0;left=0;bottom=0;right=0;align=left;spacingLeft=6;overflow=hidden;whiteSpace=wrap;html=1;rounded=0;fontFamily=Courier New;fontSize=16;" parent="C7LOxqXwbHzqQDy3l2-N-319" vertex="1">
          <mxGeometry x="31.950042724609375" width="337.0499572753906" height="30" as="geometry">
            <mxRectangle width="337.0499572753906" height="30" as="alternateBounds" />
          </mxGeometry>
        </mxCell>
        <mxCell id="C7LOxqXwbHzqQDy3l2-N-322" value="" style="shape=tableRow;horizontal=0;startSize=0;swimlaneHead=0;swimlaneBody=0;fillColor=none;collapsible=0;dropTarget=0;points=[[0,0.5],[1,0.5]];portConstraint=eastwest;top=0;left=0;right=0;bottom=0;rounded=0;fontFamily=Courier New;fontSize=16;" parent="C7LOxqXwbHzqQDy3l2-N-284" vertex="1">
          <mxGeometry y="180" width="369" height="30" as="geometry" />
        </mxCell>
        <mxCell id="C7LOxqXwbHzqQDy3l2-N-323" value="" style="shape=partialRectangle;connectable=0;fillColor=none;top=0;left=0;bottom=0;right=0;editable=1;overflow=hidden;whiteSpace=wrap;html=1;rounded=0;fontFamily=Courier New;fontSize=16;" parent="C7LOxqXwbHzqQDy3l2-N-322" vertex="1">
          <mxGeometry width="31.950042724609375" height="30" as="geometry">
            <mxRectangle width="31.950042724609375" height="30" as="alternateBounds" />
          </mxGeometry>
        </mxCell>
        <mxCell id="C7LOxqXwbHzqQDy3l2-N-324" value="longitude&amp;nbsp; &amp;nbsp; &amp;nbsp; &amp;nbsp; &amp;nbsp; &amp;nbsp; &amp;nbsp; &amp;nbsp; &lt;b&gt;float&lt;/b&gt;" style="shape=partialRectangle;connectable=0;fillColor=none;top=0;left=0;bottom=0;right=0;align=left;spacingLeft=6;overflow=hidden;whiteSpace=wrap;html=1;rounded=0;fontFamily=Courier New;fontSize=16;" parent="C7LOxqXwbHzqQDy3l2-N-322" vertex="1">
          <mxGeometry x="31.950042724609375" width="337.0499572753906" height="30" as="geometry">
            <mxRectangle width="337.0499572753906" height="30" as="alternateBounds" />
          </mxGeometry>
        </mxCell>
        <mxCell id="C7LOxqXwbHzqQDy3l2-N-306" value="" style="shape=tableRow;horizontal=0;startSize=0;swimlaneHead=0;swimlaneBody=0;fillColor=none;collapsible=0;dropTarget=0;points=[[0,0.5],[1,0.5]];portConstraint=eastwest;top=0;left=0;right=0;bottom=0;rounded=0;fontFamily=Courier New;fontSize=16;" parent="C7LOxqXwbHzqQDy3l2-N-284" vertex="1">
          <mxGeometry y="210" width="369" height="30" as="geometry" />
        </mxCell>
        <mxCell id="C7LOxqXwbHzqQDy3l2-N-307" value="FK" style="shape=partialRectangle;connectable=0;fillColor=none;top=0;left=0;bottom=0;right=0;editable=1;overflow=hidden;whiteSpace=wrap;html=1;rounded=0;fontFamily=Courier New;fontSize=16;" parent="C7LOxqXwbHzqQDy3l2-N-306" vertex="1">
          <mxGeometry width="31.950042724609375" height="30" as="geometry">
            <mxRectangle width="31.950042724609375" height="30" as="alternateBounds" />
          </mxGeometry>
        </mxCell>
        <mxCell id="C7LOxqXwbHzqQDy3l2-N-308" value="id_offre" style="shape=partialRectangle;connectable=0;fillColor=none;top=0;left=0;bottom=0;right=0;align=left;spacingLeft=6;overflow=hidden;whiteSpace=wrap;html=1;rounded=0;fontFamily=Courier New;fontSize=16;" parent="C7LOxqXwbHzqQDy3l2-N-306" vertex="1">
          <mxGeometry x="31.950042724609375" width="337.0499572753906" height="30" as="geometry">
            <mxRectangle width="337.0499572753906" height="30" as="alternateBounds" />
          </mxGeometry>
        </mxCell>
        <mxCell id="C7LOxqXwbHzqQDy3l2-N-331" style="edgeStyle=orthogonalEdgeStyle;rounded=0;orthogonalLoop=1;jettySize=auto;html=1;endArrow=none;endFill=0;exitX=1;exitY=0.5;exitDx=0;exitDy=0;curved=1;fontFamily=Courier New;fontSize=16;" parent="1" source="C7LOxqXwbHzqQDy3l2-N-306" target="-QC0LfeOqHy5VNt_hiCN-2" edge="1">
          <mxGeometry relative="1" as="geometry">
            <mxPoint x="-2412" y="1443" as="sourcePoint" />
            <mxPoint x="-1837" y="1199" as="targetPoint" />
          </mxGeometry>
        </mxCell>
      </root>
    </mxGraphModel>
  </diagram>
</mxfile>
